<?xml version="1.0" encoding="utf-8"?>
<!-- Generator: Adobe Illustrator 26.5.3, SVG Export Plug-In . SVG Version: 6.00 Build 0)  -->
<svg version="1.1" xmlns="http://www.w3.org/2000/svg" xmlns:xlink="http://www.w3.org/1999/xlink" x="0px" y="0px"
	 viewBox="0 0 355 269" style="enable-background:new 0 0 355 269;" xml:space="preserve">
<style type="text/css">
	.st0{display:none;}
	.st1{display:inline;fill:#FF8068;}
	.st2{display:inline;}
	.st3{fill:#FFFFFF;stroke:#FFFFFF;stroke-miterlimit:10;}
	.st4{font-family:'KCC-eunyoung-Regular';}
	.st5{font-size:36px;}
	.st6{font-size:48px;}
	.st7{fill:#FFFFFF;}
	.st8{fill:#FF8068;}
	.st9{display:inline;fill:#5447E8;}
</style>
<g id="백업" class="st0">
	<path class="st1" d="M276.4,229H78.6C35.2,229,0,193.8,0,150.4V78.6C0,35.2,35.2,0,78.6,0h197.9C319.8,0,355,35.2,355,78.6v71.9
		C355,193.8,319.8,229,276.4,229z"/>
	<path class="st1" d="M226.9,222.5l-44.4,44.4c-2.8,2.8-7.3,2.8-10.1,0l-44.4-44.4c-2.8-2.8-2.8-7.3,0-10.1l44.4-44.4
		c2.8-2.8,7.3-2.8,10.1,0l44.4,44.4C229.7,215.2,229.7,219.8,226.9,222.5z"/>
	<text transform="matrix(1 0 0 1 39.5762 106.0272)" class="st2"><tspan x="0" y="0" class="st3 st4 st5">취업의 지름길을 찾고 있다면,</tspan><tspan x="11" y="48" class="st3 st4 st6">국제커리어센터에서</tspan></text>
	<g class="st2">
		<rect x="175" y="48" class="st7" width="14" height="12.4"/>
		<path class="st7" d="M179,49h-4c0-10.3,9.2-13,14-13l0,4C188,40,179,40.3,179,49z"/>
		<rect x="156" y="48" class="st7" width="14" height="12.4"/>
		<path class="st7" d="M160,49h-4c0-10.3,9.2-13,14-13l0,4C169,40,160,40.3,160,49z"/>
	</g>
	<g class="st2">
		
			<rect x="162" y="180" transform="matrix(-1 -1.224647e-16 1.224647e-16 -1 338.0117 372.4445)" class="st7" width="14" height="12.4"/>
		<path class="st7" d="M172,191.4h4c0,10.3-9.2,13-14,13l0-4C163,200.4,172,200.1,172,191.4z"/>
		
			<rect x="181" y="180" transform="matrix(-1 -1.224647e-16 1.224647e-16 -1 376.0117 372.4445)" class="st7" width="14" height="12.4"/>
		<path class="st7" d="M191,191.4h4c0,10.3-9.2,13-14,13l0-4C182,200.4,191,200.1,191,191.4z"/>
	</g>
	<g class="st2">
		
			<image style="overflow:visible;" width="355" height="270" xlink:href="A40343FA.jpg"  transform="matrix(0.9999 0 0 0.9999 -8014 -8057)">
		</image>
	</g>
</g>
<g id="_x31_">
	<path class="st8" d="M276.4,229H78.6C35.2,229,0,193.8,0,150.4V78.6C0,35.2,35.2,0,78.6,0h197.9C319.8,0,355,35.2,355,78.6v71.9
		C355,193.8,319.8,229,276.4,229z"/>
	<path class="st8" d="M226.9,222.5l-44.4,44.4c-2.8,2.8-7.3,2.8-10.1,0l-44.4-44.4c-2.8-2.8-2.8-7.3,0-10.1l44.4-44.4
		c2.8-2.8,7.3-2.8,10.1,0l44.4,44.4C229.7,215.2,229.7,219.8,226.9,222.5z"/>
	<g>
		<path class="st3" d="M53.5,95.5c-1.3,0.1-2.7,0.4-4.1,0.8c-0.4,1.2-0.8,2.6-1.1,4.1c-0.3,1.5-0.5,2.9-0.7,4.4c0,0.1,0,0.3-0.1,0.4
			c-0.1,0.1-0.2,0.2-0.3,0.2c-0.1,0-0.2,0-0.3-0.1c-0.1-0.1-0.1-0.2-0.1-0.5c0-1.2,0-2.5,0.2-3.9c0.2-1.4,0.5-2.8,0.9-4.1
			c-1.7,0.5-3.5,1.1-5.4,1.8c-0.2,0.1-0.4,0.1-0.6,0.2c-0.2,0.1-0.5,0.1-0.6,0.1c-0.4,0-0.6-0.2-0.6-0.6c0-0.2,0-0.3,0.2-0.4
			s0.3-0.2,0.6-0.3c0.8-0.3,1.7-0.6,2.7-0.9c1-0.3,2.1-0.6,3.1-0.9c1.1-0.3,2.2-0.5,3.3-0.7c1.1-0.2,2.2-0.3,3.2-0.4
			c0.2,0,0.4,0,0.6,0.1c0.1,0.1,0.2,0.2,0.1,0.4c0,0.2-0.1,0.3-0.2,0.3C54,95.4,53.8,95.5,53.5,95.5z M42.7,95.7
			c-0.1,0.1-0.3,0.2-0.4,0.3c-0.2,0-0.3,0-0.4,0c-0.1,0-0.2-0.1-0.2-0.3c0-0.2,0.1-0.3,0.2-0.6c0.4-0.6,0.8-1.1,1.2-1.5
			c0.4-0.5,0.9-0.9,1.4-1.4c0.5-0.5,1.1-1,1.7-1.6c0.6-0.6,1.3-1.2,2-1.9c0.4-0.4,0.6-0.7,0.5-1c-0.1-0.3-0.4-0.3-1-0.2
			c-0.8,0.2-1.6,0.5-2.3,0.8c-0.8,0.3-1.5,0.8-2.1,1.3c-0.2,0.2-0.4,0.3-0.5,0.3s-0.3,0-0.4-0.1c-0.1-0.1-0.1-0.2-0.1-0.4
			c0-0.2,0.1-0.3,0.2-0.5c0.4-0.5,1.1-1,2-1.5c0.9-0.5,2-0.8,3.2-1c0.6-0.1,1.2-0.1,1.6,0.1c0.4,0.1,0.7,0.3,0.8,0.6
			c0.2,0.3,0.2,0.6,0.1,1s-0.4,0.8-0.8,1.2l-0.6,0.6c1.2,0.3,2.4,0.8,3.5,1.7c0.2,0.2,0.3,0.4,0.2,0.6c-0.1,0.2-0.3,0.3-0.6,0.2
			c-0.7-0.3-1.4-0.6-2.1-0.8s-1.4-0.4-2.1-0.6c-0.8,0.7-1.6,1.5-2.6,2.4C44.3,94,43.5,94.8,42.7,95.7z M50.3,83
			c0.3,0,0.5,0.1,0.5,0.4c0,0.3-0.2,0.4-0.5,0.5c-0.5,0-1,0.1-1.5,0.3c-0.6,0.1-1.1,0.3-1.7,0.5c-0.6,0.2-1.1,0.4-1.6,0.6
			c-0.5,0.2-0.9,0.5-1.2,0.7C44,86,43.8,86.1,43.7,86c-0.1-0.1-0.2-0.2-0.3-0.4c0-0.1,0-0.3,0.1-0.4c0.1-0.2,0.2-0.3,0.3-0.4
			c0.3-0.2,0.7-0.4,1.2-0.6c0.5-0.2,1-0.4,1.6-0.6c0.6-0.2,1.2-0.3,1.8-0.4C49.1,83.1,49.7,83,50.3,83z M55.4,105.9
			c-0.1-2.3-0.1-4.4,0.1-6.5c0.2-2.1,0.4-4.1,0.6-6c0.2-1.9,0.5-3.7,0.6-5.4c0.2-1.7,0.3-3.4,0.2-4.9c0-0.2,0.1-0.4,0.2-0.5
			c0.1-0.1,0.3-0.2,0.5-0.3c0.2,0,0.4,0,0.5,0.1s0.2,0.3,0.2,0.6c0,1.5-0.1,3.1-0.3,4.8c-0.2,1.7-0.4,3.4-0.7,5.3
			c-0.3,1.9-0.5,3.9-0.7,6s-0.4,4.4-0.4,6.8c0,0.1,0,0.2-0.1,0.3c-0.1,0.1-0.2,0.1-0.3,0.1s-0.2,0-0.3-0.1
			C55.5,106.1,55.4,106,55.4,105.9z"/>
		<path class="st3" d="M61.6,96.1c-0.3-0.1-0.4-0.3-0.6-0.6c-0.1-0.3-0.2-0.7-0.2-1.1c0-0.4,0-0.9,0.1-1.3c0.1-0.5,0.2-0.9,0.3-1.3
			c0.2-0.8,0.4-1.5,0.7-2.1c0.3-0.7,0.6-1.3,1.1-2c0-0.3,0-0.4,0.2-0.5c0.2-0.1,0.4-0.1,0.6-0.1c0.6,0.2,1.1,0.5,1.5,0.9
			c0.4,0.4,0.6,1,0.6,1.6c0,0.7,0,1.3-0.1,1.7c-0.1,0.5-0.3,1-0.5,1.7c-0.1,0.4-0.3,0.8-0.6,1.2c-0.3,0.4-0.6,0.8-0.9,1.1
			c-0.3,0.3-0.7,0.5-1,0.7C62.3,96.2,62,96.2,61.6,96.1z M63.9,88.4c-0.4,0.6-0.7,1.1-0.9,1.7c-0.2,0.6-0.5,1.3-0.6,2
			c0,0.2-0.1,0.4-0.1,0.7c0,0.3-0.1,0.6-0.1,0.8c0,0.3,0,0.5,0,0.7c0,0.2,0.1,0.4,0.1,0.4c0.1,0.1,0.3,0.1,0.4-0.1
			c0.2-0.1,0.3-0.3,0.5-0.5c0.2-0.2,0.3-0.5,0.5-0.8c0.2-0.3,0.3-0.6,0.4-0.8c0.2-0.6,0.4-1.2,0.5-1.7c0.1-0.5,0.2-1,0.1-1.4
			c0-0.4-0.1-0.6-0.2-0.8C64.4,88.6,64.2,88.5,63.9,88.4z M74.3,90.4c0.2,0,0.3,0,0.4,0.1c0.1,0.1,0.1,0.2,0.1,0.3
			c0,0.1-0.1,0.2-0.2,0.3c-0.1,0.1-0.2,0.2-0.4,0.2c-0.6,0-1.2,0.1-1.7,0.2c-0.5,0.1-1,0.2-1.4,0.3s-0.8,0.2-1.2,0.4
			c-0.4,0.1-0.8,0.3-1.2,0.4c-0.2,0-0.4,0.1-0.6,0.1c-0.2,0-0.4-0.1-0.4-0.3c-0.1-0.3,0-0.6,0.4-0.8c0.6-0.2,1.1-0.4,1.6-0.6
			c0.5-0.1,1-0.3,1.5-0.4c0.5-0.1,1-0.2,1.5-0.2S73.8,90.5,74.3,90.4z M70.3,108.1c0,0.1,0,0.3-0.1,0.3s-0.2,0.1-0.3,0.1
			c-0.1,0-0.2,0-0.3-0.1c-0.1-0.1-0.2-0.2-0.2-0.3c-0.1-0.6-0.2-1.3-0.2-2.2c0-0.9,0-1.8,0-2.7c0-0.9,0.1-1.9,0.2-2.8
			c0.1-0.9,0.2-1.7,0.2-2.3c0-0.3,0.2-0.6,0.4-0.6c0.1,0,0.2-0.1,0.3-0.1c0.5,0,0.7,0.2,0.7,0.5c-0.1,0.5-0.2,1.1-0.2,1.8
			c-0.1,0.7-0.2,1.4-0.2,2.1c0.7-0.3,1.6-0.6,2.5-0.8c0.9-0.2,1.8-0.2,2.6-0.1c0-0.6,0.1-1.1,0.1-1.6s0.1-1,0.1-1.4
			c0-0.2,0-0.3,0.1-0.4c0.1-0.1,0.2-0.2,0.3-0.2c0.1,0,0.3-0.1,0.4-0.1c0.2,0,0.4,0.1,0.4,0.2c0,0.1,0.1,0.2,0.1,0.4
			c0,0.6,0,1.3-0.1,2c-0.1,0.8-0.2,1.5-0.3,2.3c-0.1,0.8-0.3,1.5-0.4,2.2c-0.1,0.7-0.3,1.3-0.4,1.7l1.4-0.4c0.2-0.1,0.4,0,0.5,0.2
			c0.1,0.2,0,0.3-0.2,0.5c-0.3,0.2-0.7,0.4-1.2,0.6c-0.5,0.2-1,0.3-1.5,0.4c-0.5,0.1-1,0.1-1.4,0.2c-0.4,0-0.8,0.1-1,0.1
			c-0.4,0-0.6-0.2-0.6-0.5c0-0.3,0.2-0.4,0.5-0.5c0.3,0,0.7-0.1,1.1-0.1s0.9-0.1,1.4-0.2c0.1-0.6,0.2-1.2,0.3-2
			c0.1-0.8,0.2-1.6,0.3-2.4c-1.1,0-2.1,0.2-3,0.5c-0.9,0.3-1.6,0.6-2.1,0.9c-0.1,1-0.1,1.9-0.2,2.7
			C70.2,106.9,70.2,107.6,70.3,108.1z M77.2,81.4c0-0.2,0.1-0.4,0.2-0.5c0.1-0.1,0.3-0.1,0.5-0.1c0.2,0,0.3,0.1,0.4,0.2
			s0.2,0.2,0.2,0.4c0,1.5-0.1,2.9-0.2,4.1c-0.1,1.2-0.2,2.4-0.4,3.5c-0.1,1.1-0.3,2.2-0.4,3.2c-0.1,1-0.2,2.1-0.3,3.3
			c0,0.1,0,0.2-0.1,0.3c-0.1,0.1-0.2,0.1-0.3,0.1c-0.1,0-0.2,0-0.3-0.1c-0.1,0-0.1-0.1-0.1-0.3c0-1,0-2.1,0.1-3.1
			c0.1-1,0.2-2.1,0.3-3.3c0.1-1.1,0.2-2.3,0.3-3.6C77.1,84.3,77.2,82.9,77.2,81.4z"/>
		<path class="st3" d="M81.7,102.3c-0.3,0.1-0.5,0.1-0.8,0.1c-0.3,0-0.5-0.1-0.6-0.3c-0.1-0.2-0.1-0.3-0.1-0.5
			c0-0.2,0.2-0.3,0.4-0.4c2.1-0.7,4.3-1.3,6.4-1.7s4.3-0.6,6.6-0.4c0.2,0,0.4,0.1,0.5,0.2c0.1,0.1,0.2,0.2,0.2,0.3
			c0,0.1-0.1,0.2-0.2,0.3c-0.1,0.1-0.3,0.1-0.5,0.1c-1.2,0-2.3,0-3.3,0.1c-1,0.1-2,0.2-2.9,0.4c-0.9,0.2-1.8,0.4-2.8,0.7
			C83.7,101.6,82.7,101.9,81.7,102.3z M85.8,94.7c-0.6,0.1-1.1,0.1-1.4-0.1c-0.3-0.2-0.5-0.6-0.6-1c-0.1-0.4-0.1-0.9-0.1-1.4
			c0.1-0.5,0.2-1,0.3-1.4c0.3-0.8,0.6-1.5,0.9-2.2c0.3-0.7,0.6-1.3,0.8-1.7c0.1-0.3,0.3-0.5,0.5-0.7c0.2-0.2,0.4-0.3,0.8-0.4
			c0.6-0.1,1.1,0,1.7,0.2c0.5,0.3,0.9,0.6,1.2,1.1c0.5,0.8,0.6,1.6,0.5,2.5c-0.2,0.9-0.5,1.7-1,2.5c-0.6,0.9-1.1,1.5-1.7,2
			C87.1,94.3,86.5,94.6,85.8,94.7z M88.4,91.2c0.4-0.6,0.6-1.2,0.6-1.8c0-0.6,0-1.2-0.1-1.6c-0.1-0.3-0.3-0.6-0.6-0.8
			c-0.3-0.2-0.6-0.3-1-0.3c-0.6,1.2-1,2.1-1.3,2.7c-0.3,0.6-0.5,1.1-0.6,1.4c-0.3,0.9-0.5,1.6-0.3,2c0.1,0.4,0.3,0.6,0.7,0.5
			c0.5-0.1,0.9-0.3,1.4-0.7C87.6,92.4,88,91.9,88.4,91.2z M99.6,84.7c-0.2,1.2-0.3,2.2-0.4,3.1c-0.1,0.9-0.2,1.8-0.3,2.5
			c-0.1,0.8-0.2,1.5-0.3,2.2c-0.1,0.7-0.2,1.5-0.4,2.3c-0.2,0.9-0.4,1.8-0.5,2.6c-0.1,0.8-0.3,1.7-0.4,2.5c-0.1,0.9-0.2,1.8-0.3,2.8
			c-0.1,1-0.2,2.1-0.3,3.3c0,0.2-0.1,0.4-0.2,0.6c-0.1,0.1-0.2,0.2-0.3,0.2c-0.1,0-0.2,0-0.3-0.1c-0.1-0.1-0.1-0.3-0.1-0.5
			c0-2,0.1-3.9,0.4-5.7c0.2-1.8,0.5-3.7,0.8-5.7c0.1-0.8,0.3-1.5,0.4-2.3c0.1-0.7,0.2-1.5,0.3-2.3c0.1-0.8,0.2-1.7,0.3-2.7
			c0.1-1,0.3-2.1,0.4-3.4c0-0.3,0.1-0.5,0.3-0.5c0.1-0.1,0.3-0.1,0.5-0.1C99.5,83.6,99.7,84,99.6,84.7z"/>
		<path class="st3" d="M120.3,89.4c0.3-0.6,0.4-1.1,0.3-1.4c0-0.3-0.4-0.5-1-0.4c-1.1,0-2.1,0.3-3,0.9c-0.9,0.5-1.7,1.2-2.4,2.2
			c-0.1,0.1-0.2,0.2-0.5,0.3c-0.2,0.1-0.4,0-0.5-0.1c-0.3-0.2-0.3-0.6-0.1-1c0.2-0.3,0.4-0.7,0.8-1.1c0.3-0.4,0.8-0.7,1.3-1.1
			c0.5-0.3,1.1-0.6,1.8-0.9c0.7-0.2,1.5-0.4,2.4-0.4c1.3-0.1,2.1,0.2,2.4,0.8c0.3,0.6,0.3,1.4-0.2,2.4c-0.4,0.9-0.9,1.8-1.5,2.7
			c-0.6,0.9-1.1,1.7-1.8,2.6c0.8,0.8,1.6,1.6,2.5,2.3c0.9,0.7,1.8,1.3,2.6,1.7c0.2,0.1,0.2,0.3,0.1,0.5c-0.1,0.2-0.3,0.3-0.5,0.3
			c-1.1-0.3-2.1-0.7-3-1.3c-0.9-0.6-1.8-1.3-2.8-2.2c-0.6,0.9-1.3,1.8-1.9,2.8c-0.6,0.9-1.2,1.9-1.6,3c-0.1,0.1-0.2,0.2-0.3,0.3
			c-0.1,0.1-0.3,0.1-0.4,0.1c-0.1,0-0.2-0.1-0.3-0.2c-0.1-0.1-0.1-0.3,0-0.5c0.4-1.3,1-2.5,1.6-3.5c0.6-1.1,1.3-2.1,2-3
			c0.7-0.9,1.4-1.9,2-2.8C119.2,91.3,119.8,90.4,120.3,89.4z M127.3,106.4c-0.1-0.7-0.2-1.4-0.2-2.1c0-0.7,0-1.4,0-2.1
			c0-1.4,0.1-2.9,0.2-4.3c0.1-1.4,0.3-2.8,0.5-4.2c0.1-1,0.2-1.9,0.3-2.7c0.1-0.8,0.2-1.7,0.2-2.5c0.1-0.8,0.1-1.7,0.2-2.6
			s0.1-1.9,0.1-3.1c0-0.1,0.1-0.2,0.2-0.3c0.1-0.1,0.3-0.2,0.5-0.2c0.2,0,0.4,0,0.6,0c0.2,0.1,0.3,0.2,0.3,0.4c0,1.1-0.1,2.1-0.1,3
			c-0.1,0.9-0.1,1.8-0.2,2.7c-0.1,0.9-0.2,1.8-0.3,2.7c-0.1,0.9-0.2,1.9-0.4,3c-0.2,1.6-0.4,3.4-0.6,5.5c-0.2,2.1-0.3,4.3-0.2,6.6
			c0,0.1,0,0.3-0.1,0.4c-0.1,0.1-0.2,0.2-0.3,0.2c-0.1,0-0.2,0-0.3-0.1C127.4,106.7,127.3,106.6,127.3,106.4z"/>
		<path class="st3" d="M132.8,98.2c2-0.6,4.1-1.1,6.3-1.4c2.2-0.3,4.4-0.4,6.7-0.1c0.1,0,0.2,0,0.2,0.1c0,0.1,0.1,0.2,0.1,0.3
			c0,0.1,0,0.2-0.1,0.3c-0.1,0.1-0.1,0.1-0.2,0.1c-2.4,0-4.6,0.1-6.6,0.4c-2,0.3-3.8,0.8-5.5,1.3c-0.3,0.1-0.6,0.2-0.9,0.3
			c-0.3,0.1-0.5,0-0.7-0.3c-0.2-0.2-0.2-0.4,0-0.6C132.3,98.4,132.6,98.3,132.8,98.2z M141.2,101.2c-0.6,0-1.3,0.1-2.1,0.2
			c-0.7,0.1-1.4,0.4-2.1,0.8c-0.3,1-0.5,2.1-0.7,3.2c-0.1,1.1-0.2,2-0.3,2.7c0,0.2-0.1,0.3-0.2,0.4s-0.2,0.1-0.4,0.1
			c-0.1,0-0.3,0-0.4-0.1c-0.1-0.1-0.2-0.2-0.2-0.3c0-1.1,0.1-2.4,0.3-3.7c0.2-1.3,0.5-2.6,0.9-3.7c0-0.1,0.1-0.2,0.3-0.2
			c0.1,0,0.3,0,0.4,0c0.1,0,0.3,0.1,0.4,0.1c0.1,0.1,0.2,0.1,0.2,0.2c0.7-0.3,1.3-0.4,2-0.6c0.7-0.1,1.3-0.1,1.9-0.1
			c0.5,0,0.8,0.1,1.1,0.3c0.3,0.2,0.5,0.4,0.6,0.7c0.1,0.3,0.2,0.6,0.1,0.9c0,0.3-0.2,0.6-0.4,1c-0.2,0.4-0.4,0.7-0.7,1.1
			c-0.3,0.4-0.5,0.8-0.8,1.1c-0.2,0.4-0.5,0.7-0.6,1c-0.2,0.3-0.3,0.6-0.4,0.8c-0.1,0.2,0,0.4,0.1,0.4c0.1,0,0.3,0,0.6-0.1
			c0.6-0.2,1.1-0.5,1.7-0.6c0.6-0.2,1.2-0.3,1.8-0.3c0.3,0,0.5,0.1,0.5,0.3s-0.1,0.4-0.4,0.4c-0.6,0.1-1.1,0.3-1.7,0.5
			c-0.6,0.2-1.1,0.5-1.7,0.7c-0.3,0.1-0.7,0.3-1.1,0.3c-0.4,0.1-0.7,0-1-0.1c-0.2-0.1-0.2-0.4-0.2-0.7c0-0.3,0.1-0.6,0.2-1
			c0.1-0.3,0.3-0.6,0.5-1c0.2-0.4,0.4-0.8,0.6-1.1c0.2-0.4,0.4-0.7,0.6-1.1c0.2-0.3,0.4-0.6,0.5-0.8c0.1-0.1,0.2-0.3,0.3-0.5
			c0.1-0.2,0.1-0.3,0.1-0.5c0-0.2,0-0.3-0.1-0.4C141.6,101.3,141.4,101.2,141.2,101.2z M137.6,94.6c-0.4,0-0.8,0-1-0.1
			c-0.3-0.1-0.4-0.3-0.5-0.5c-0.1-0.2-0.1-0.4,0-0.7c0.1-0.3,0.3-0.5,0.6-0.8c0.6-0.6,1.3-1.2,2-1.8c0.7-0.6,1.3-1.2,1.9-1.8
			c0.1-0.1,0.1-0.2,0.2-0.3c0.1-0.1,0.1-0.2,0.1-0.3s0-0.1-0.1-0.2c-0.1,0-0.2-0.1-0.4,0c-0.4,0-1,0.2-1.6,0.3
			c-0.6,0.2-1.3,0.4-2,0.8c-0.1,0.1-0.3,0.1-0.4,0.1c-0.1,0-0.2-0.1-0.3-0.2c0-0.1-0.1-0.2,0-0.4s0.1-0.3,0.3-0.4l1.2-0.9
			c0.4-0.3,0.8-0.7,1.2-1c0.4-0.4,0.8-0.7,1.1-1.1c0.4-0.4,0.7-0.7,1-1.1c0.3-0.3,0.5-0.6,0.7-0.9c0.3-0.4,0.4-0.7,0.2-0.9
			c-0.2-0.2-0.5-0.2-0.9-0.1c-1,0.2-1.9,0.6-2.7,0.9c-0.8,0.4-1.6,0.8-2.3,1.3c-0.2,0.1-0.4,0.1-0.6,0c-0.2-0.1-0.3-0.4-0.2-0.7
			c0-0.2,0.2-0.4,0.7-0.6c0.4-0.3,0.9-0.5,1.5-0.8c0.6-0.3,1.3-0.5,2-0.7c0.7-0.2,1.4-0.4,2-0.5c0.6-0.1,1,0,1.4,0.1
			s0.6,0.3,0.7,0.5s0.1,0.5,0.1,0.8c-0.1,0.3-0.2,0.6-0.4,0.9c-0.2,0.3-0.5,0.6-0.8,1c-0.3,0.4-0.7,0.7-1.1,1.1
			c-0.4,0.4-0.8,0.7-1.2,1c-0.4,0.3-0.7,0.6-1,0.9c0.4-0.2,0.9-0.3,1.4-0.4c0.5,0,0.9-0.1,1.2,0c0.3,0,0.5,0.1,0.6,0.2
			c0.1,0.1,0.2,0.3,0.2,0.5c0,0.2,0,0.4-0.1,0.6c-0.1,0.2-0.2,0.4-0.4,0.6c-0.6,0.7-1.2,1.3-1.9,1.9c-0.7,0.6-1.4,1.2-2,1.7
			c-0.3,0.3-0.4,0.5-0.3,0.6c0.1,0.1,0.3,0.1,0.7,0.1c0.7-0.1,1.5-0.3,2.4-0.5c0.9-0.2,1.7-0.5,2.6-0.8c0.3-0.1,0.5-0.1,0.6,0.1
			s0,0.4-0.3,0.6c-0.3,0.2-0.7,0.4-1.3,0.6c-0.5,0.2-1.1,0.4-1.7,0.5c-0.6,0.2-1.1,0.3-1.7,0.4C138.3,94.5,137.9,94.6,137.6,94.6z"
			/>
		<path class="st3" d="M153.8,88c0-0.3,0-0.7-0.3-1c-0.2-0.4-0.7-0.5-1.3-0.5c-0.4,0-0.7,0.1-1,0.2c-0.3,0.1-0.6,0.3-0.9,0.5
			c-0.3,0.2-0.5,0.4-0.6,0.6c-0.2,0.2-0.3,0.4-0.4,0.6c0,0.1-0.1,0.2-0.3,0.3c-0.1,0-0.2,0.1-0.3,0s-0.2-0.1-0.3-0.2
			c-0.1-0.1-0.1-0.2-0.1-0.4c0.1-0.7,0.5-1.3,1.2-1.8c0.7-0.5,1.6-0.8,2.7-0.8c1,0,1.7,0.2,2.2,0.7c0.5,0.5,0.7,1.1,0.6,1.8
			c0,0.9-0.3,1.8-0.7,2.6c-0.4,0.8-0.9,1.6-1.5,2.4s-1.1,1.6-1.6,2.3s-0.9,1.5-1.1,2.3c0,0.1-0.1,0.3-0.2,0.3
			c-0.1,0.1-0.2,0.1-0.3,0.1c-0.1,0-0.2-0.1-0.3-0.2c-0.1-0.1-0.1-0.2-0.1-0.3c0.1-0.8,0.4-1.5,0.8-2.3c0.4-0.7,0.9-1.5,1.4-2.3
			c0.5-0.8,1-1.6,1.4-2.4C153.4,89.8,153.7,88.9,153.8,88z M155.7,107c-0.3,0.2-0.4,0.4-0.4,0.5c0,0.1,0.1,0.2,0.4,0.1
			c0.5-0.1,1-0.1,1.5-0.2c0.5,0,0.9-0.1,1.4-0.1c0.5,0,0.9-0.1,1.4-0.1c0.5,0,1,0,1.7,0c0.7,0,1.3,0,1.9,0c0.6,0,1.2,0.1,1.9,0.2
			c0.2,0,0.4,0.1,0.4,0.2c0.1,0.1,0.1,0.2,0.1,0.3c0,0.1-0.1,0.2-0.2,0.3c-0.1,0.1-0.2,0.1-0.4,0.1c-0.6,0-1.2-0.1-1.8-0.1
			c-0.6,0-1.1,0-1.7,0s-1.1,0-1.6,0c-0.5,0-1,0.1-1.5,0.1c-0.5,0.1-1.1,0.1-1.7,0.3c-0.6,0.1-1.3,0.2-2.2,0.4c-0.4,0.1-0.8,0.1-1,0
			c-0.3-0.1-0.5-0.3-0.6-0.6c-0.1-0.3-0.1-0.6,0.1-0.8c0.2-0.2,0.3-0.4,0.5-0.5c0.5-0.4,1.2-1,2.1-1.7c0.9-0.7,1.9-1.4,3.1-2.2
			c0.3-0.2,0.4-0.3,0.4-0.5c0-0.1-0.2-0.2-0.5-0.2c-0.8,0-1.7,0.1-2.4,0.2c-0.3,0-0.6,0.1-0.8,0.2c-0.2,0.1-0.6,0.2-1,0.3
			c-0.2,0.1-0.4,0.2-0.7,0.2s-0.5,0.1-0.7,0.1c-0.3,0-0.5-0.1-0.5-0.3s0.1-0.4,0.4-0.6l2.7-1.7c0.7-0.5,1.3-0.9,1.8-1.3
			c0.5-0.4,0.9-0.7,1.3-0.9c0.4-0.3,0.7-0.5,0.9-0.6c0.3-0.2,0.5-0.4,0.7-0.5c0.4-0.3,0.6-0.6,0.6-0.9c0-0.3-0.3-0.4-1.1-0.4
			c-0.7,0-1.4,0.2-2.1,0.4c-0.7,0.2-1.5,0.6-2.3,1.3c-0.1,0.1-0.3,0-0.4-0.1c-0.1-0.1-0.2-0.3-0.2-0.4c0-0.3,0.2-0.6,0.5-0.8
			c0.3-0.2,0.7-0.4,1.1-0.6c0.5-0.2,1-0.4,1.6-0.5c0.6-0.1,1.3-0.2,2-0.2c0.8,0,1.4,0.2,1.8,0.4c0.4,0.3,0.6,0.5,0.6,0.9
			c0,0.5-0.4,1-1.2,1.6c-0.7,0.5-1.3,0.9-1.8,1.3c-0.5,0.4-1,0.7-1.4,1c-0.4,0.3-0.8,0.5-1.1,0.7c-0.3,0.2-0.7,0.4-1,0.6
			c0.5-0.1,1-0.2,1.6-0.2s1.1,0,1.6,0.1c0.8,0.1,1.3,0.3,1.4,0.6c0.1,0.3,0,0.7-0.4,1c-0.8,0.6-1.6,1.2-2.4,1.7
			C157.4,105.7,156.5,106.3,155.7,107z M162.7,80.2c0-0.1,0.1-0.3,0.2-0.4c0.2-0.1,0.3-0.1,0.5-0.2c0.2,0,0.3,0,0.5,0.1
			c0.1,0.1,0.2,0.3,0.2,0.5c0,0.7-0.1,1.5-0.3,2.3c-0.1,0.8-0.3,1.7-0.4,2.6c-0.2,0.9-0.3,1.7-0.5,2.6c-0.2,0.9-0.4,1.7-0.5,2.5
			c-0.1,0.6-0.3,1.2-0.4,1.8c-0.1,0.6-0.2,1.1-0.3,1.6c0,0.1-0.1,0.3-0.2,0.4c-0.1,0.1-0.2,0.1-0.4,0.1s-0.2,0-0.3-0.1
			c-0.1-0.1-0.1-0.3-0.1-0.5c0.1-0.8,0.2-1.6,0.4-2.4c0.1-0.8,0.3-1.6,0.5-2.4c0.2-1.2,0.4-2.4,0.7-3.7
			C162.3,83.6,162.5,82,162.7,80.2z"/>
		<path class="st3" d="M166.7,93.6c-0.2-0.1-0.3-0.3-0.2-0.5c0-0.2,0.3-0.5,0.8-0.7c0.9-0.4,2-0.9,3.2-1.3c1.3-0.4,2.6-0.8,3.9-1.1
			c1.4-0.3,2.7-0.6,4.1-0.8c1.4-0.2,2.7-0.3,3.8-0.3c0.5,0,0.7,0.1,0.7,0.4s-0.2,0.4-0.6,0.4c-1.2,0.1-2.5,0.3-3.7,0.5
			c-1.3,0.2-2.5,0.5-3.7,0.8c-1.2,0.3-2.4,0.7-3.5,1c-1.1,0.4-2.1,0.8-3,1.2c-0.4,0.2-0.7,0.3-1,0.4C167.2,93.8,167,93.7,166.7,93.6
			z M173.7,108.9c-0.3,0-0.6,0.1-1,0.1c-0.4,0-0.8,0-1.2-0.1c-0.4-0.1-0.7-0.3-0.9-0.5s-0.3-0.6-0.3-1c0-0.3,0.2-0.6,0.4-0.9
			c0.2-0.3,0.5-0.6,0.8-0.8c0.8-0.6,1.5-1.1,2.1-1.5c0.5-0.3,1-0.7,1.2-0.9c0.2-0.2,0.5-0.4,0.8-0.7s0.6-0.6,0.8-0.8
			c0.2-0.3,0.3-0.5,0.3-0.7c0-0.2-0.2-0.3-0.6-0.3c-0.8,0-1.6,0.1-2.3,0.3c-0.7,0.2-1.5,0.5-2.5,0.9c-0.2,0.1-0.4,0.1-0.5,0
			c-0.1,0-0.3-0.1-0.3-0.2c-0.1-0.1-0.1-0.2-0.1-0.4c0-0.1,0.1-0.2,0.2-0.3c0.2-0.1,0.5-0.3,0.8-0.5c0.3-0.2,0.7-0.4,1.3-0.8
			c0.7-0.4,1.3-0.8,2-1.3c0.7-0.5,1.2-0.9,1.7-1.4c0.8-0.9,0.6-1.4-0.4-1.4c-0.9,0-1.9,0.2-2.9,0.6c-1,0.4-2,0.9-3,1.5
			c-0.3,0.2-0.5,0.3-0.8,0.4c-0.3,0.1-0.5,0.1-0.6-0.1c-0.2-0.3-0.2-0.6,0.1-0.9c0.2-0.3,0.7-0.6,1.4-0.9c1-0.5,2.1-0.9,3.1-1.2
			c1-0.3,2.1-0.5,3.3-0.5c0.6,0,1.1,0.1,1.5,0.4c0.4,0.3,0.5,0.8,0.4,1.5c0,0.3-0.2,0.6-0.5,0.9c-0.3,0.3-0.6,0.6-1,0.9
			c-0.4,0.3-0.8,0.6-1.2,0.9c-0.4,0.3-0.8,0.5-1.2,0.8c0.4-0.1,0.8-0.2,1.3-0.2c0.4,0,0.8,0,1.2,0c0.5,0,1,0.1,1.3,0.2
			s0.5,0.4,0.5,0.7c0,0.5-0.2,0.9-0.5,1.2c-0.3,0.3-0.7,0.7-1.1,1.1c-0.6,0.6-1.3,1.1-1.9,1.5c-0.7,0.5-1.3,0.9-1.8,1.3
			c-0.6,0.4-0.9,0.7-1,0.9c-0.1,0.2-0.2,0.4-0.1,0.6c0,0.1,0.2,0.3,0.3,0.3c0.2,0.1,0.6,0.1,1.2,0c1.6-0.2,3.1-0.5,4.6-0.8
			c1.5-0.4,3-0.7,4.4-1.2c0.4-0.1,0.6-0.1,0.8,0.1c0.1,0.1,0.1,0.2,0,0.3s-0.2,0.2-0.6,0.4c-0.6,0.3-1.3,0.5-2.1,0.8
			c-0.7,0.2-1.5,0.5-2.3,0.7c-0.8,0.2-1.6,0.4-2.5,0.6C175.3,108.6,174.5,108.8,173.7,108.9z M176.9,85c-0.2,0.3-0.5,0.6-0.9,1
			c-0.4,0.4-0.8,0.7-1.2,0.9c-0.4,0.3-0.9,0.4-1.3,0.5c-0.5,0.1-0.9,0-1.3-0.2c-0.3-0.2-0.5-0.4-0.6-0.8c-0.1-0.3-0.1-0.7,0-1.2
			c0.1-0.4,0.2-0.9,0.4-1.4c0.2-0.5,0.4-1,0.7-1.4c0.3-0.6,0.8-1.2,1.3-1.7s1.1-0.8,1.6-0.8c0.7,0,1.2,0.1,1.6,0.4
			c0.4,0.3,0.6,0.8,0.6,1.5c0,0.5-0.1,1-0.3,1.6C177.5,84.1,177.2,84.6,176.9,85z M176.2,81.1c-0.4,0-0.8,0.3-1.1,0.6
			c-0.4,0.4-0.7,0.8-1,1.4c-0.1,0.2-0.3,0.5-0.4,0.8s-0.3,0.6-0.4,0.9c-0.1,0.3-0.2,0.6-0.2,0.8c0,0.2,0,0.4,0.1,0.6
			c0.1,0.2,0.3,0.3,0.5,0.2c0.2-0.1,0.5-0.2,0.8-0.4c0.3-0.2,0.5-0.4,0.8-0.7s0.5-0.5,0.6-0.8c0.3-0.4,0.5-0.8,0.7-1.2
			c0.2-0.4,0.3-0.8,0.3-1.2c0-0.3,0-0.5-0.1-0.6C176.7,81.1,176.5,81,176.2,81.1z"/>
		<path class="st3" d="M196,98.9c0.7-0.7,1.5-1.5,2.2-2.4c0.8-0.9,1.5-1.7,2.2-2.6c0.7-0.9,1.4-1.8,2-2.7s1.1-1.7,1.5-2.4
			c0.2-0.3,0.3-0.6,0.2-0.8c0-0.2-0.4-0.2-1-0.1c-1,0.2-1.7,0.6-2.3,1c-0.6,0.5-1.1,1-1.6,1.7c-0.1,0.1-0.2,0.2-0.3,0.2
			s-0.2,0-0.3-0.1c-0.1-0.1-0.2-0.2-0.2-0.3c0-0.1,0-0.3,0-0.4c0.3-0.6,0.8-1.1,1.6-1.7c0.8-0.6,1.8-1,3-1.3
			c0.5-0.1,0.9-0.1,1.3-0.1c0.4,0,0.7,0.1,0.9,0.3s0.3,0.4,0.4,0.8c0,0.3-0.1,0.7-0.4,1.2c-0.3,0.5-0.6,1-0.9,1.5
			c-0.3,0.5-0.7,1.1-1.1,1.6c0.5,0.6,0.9,1.1,1.5,1.7c0.5,0.6,1,1,1.5,1.4c0.1,0.1,0.2,0.3,0.1,0.5c-0.1,0.2-0.3,0.2-0.5,0.1
			c-0.6-0.2-1.1-0.6-1.7-1.2c-0.6-0.6-1.1-1.1-1.5-1.5c-0.8,1.1-1.7,2.2-2.7,3.3c-1,1.1-2,2.1-3.1,3c-0.1,0.1-0.2,0.1-0.4,0.1
			c-0.1,0-0.2-0.1-0.3-0.2c-0.1-0.1-0.1-0.2-0.1-0.3S195.9,99.1,196,98.9z M197.8,85.4c0.2-0.2,0.6-0.4,1.2-0.7
			c0.5-0.3,1.1-0.5,1.8-0.7s1.3-0.4,2-0.6c0.7-0.2,1.3-0.3,1.8-0.3c0.4,0,0.6,0.1,0.6,0.3c0,0.2-0.1,0.4-0.5,0.5
			c-0.4,0.1-0.9,0.2-1.5,0.4c-0.6,0.2-1.1,0.4-1.7,0.6c-0.6,0.2-1.1,0.5-1.7,0.8c-0.5,0.3-1,0.5-1.3,0.8c-0.2,0.2-0.4,0.2-0.5,0.2
			c-0.1,0-0.3-0.1-0.5-0.3c-0.1-0.1-0.2-0.3-0.1-0.4C197.4,85.7,197.6,85.6,197.8,85.4z M211.4,99.3c-0.3,0.6-0.7,1.3-1.2,2.1
			c-0.5,0.8-1.1,1.7-1.8,2.6c-0.7,0.9-1.5,1.8-2.4,2.7c-0.9,0.9-1.8,1.7-2.8,2.4c-0.1,0.1-0.2,0.1-0.3,0.1c-0.1,0-0.2-0.1-0.3-0.2
			c-0.1-0.1-0.1-0.2-0.1-0.3c0-0.1,0-0.2,0.1-0.3c1.9-1.7,3.4-3.3,4.7-4.9c1.2-1.5,2.2-3,3-4.6c0.2-0.5,0.2-0.8,0.1-0.9
			c-0.2-0.1-0.5-0.1-1,0c-0.2,0.1-0.5,0.2-0.9,0.3s-0.7,0.3-1.1,0.5s-0.7,0.5-1.1,0.7c-0.3,0.3-0.6,0.6-0.8,0.9
			c-0.1,0.2-0.3,0.3-0.5,0.3c-0.2,0.1-0.4,0-0.6-0.1c-0.1-0.1-0.2-0.2-0.3-0.4c0-0.2,0-0.4,0.1-0.5c0.2-0.3,0.5-0.6,0.9-0.9
			s0.8-0.6,1.2-0.8s0.9-0.5,1.3-0.6s0.9-0.3,1.3-0.4c0.5-0.1,1-0.2,1.4-0.1c0.4,0,0.7,0.1,1,0.3c0.2,0.2,0.4,0.4,0.4,0.8
			C211.8,98.3,211.7,98.7,211.4,99.3z M213.4,79.6c-0.4,1.8-0.7,3.5-1,5.2c-0.3,1.6-0.6,3.3-0.8,5.1c0.8-0.5,1.7-0.9,2.7-1.2
			c1-0.3,1.9-0.5,3-0.6c0.3,0,0.5,0.1,0.5,0.3c0,0.2-0.1,0.4-0.4,0.5c-1.3,0.3-2.4,0.7-3.2,1.1c-0.9,0.4-1.8,1-2.7,1.6
			c-0.1,0.6-0.1,1.2-0.2,1.8s-0.1,1.3-0.1,1.9c0,0.2-0.1,0.3-0.2,0.4c-0.1,0.1-0.2,0.1-0.3,0.1c-0.1,0-0.2,0-0.3-0.1
			c-0.1-0.1-0.1-0.2-0.1-0.3c0-1.2,0-2.4,0.1-3.7c0.1-1.3,0.2-2.7,0.4-4c0.2-1.4,0.4-2.7,0.6-4.1c0.2-1.4,0.5-2.7,0.7-4
			c0-0.2,0.1-0.4,0.3-0.4c0.2-0.1,0.3-0.1,0.5-0.1c0.2,0,0.4,0.1,0.5,0.2C213.4,79.3,213.5,79.4,213.4,79.6z M210.4,103
			c0-0.2,0-0.4,0.1-0.5c0.1-0.1,0.2-0.2,0.3-0.3c0.1,0,0.3,0,0.4,0c0.1,0.1,0.2,0.2,0.3,0.4c0.3,1,0.5,2,0.8,2.8s0.6,1.7,1,2.5
			c0.1,0.3,0.1,0.5-0.2,0.6c-0.2,0.1-0.4,0.1-0.6-0.2c-0.4-0.6-0.8-1.4-1.2-2.4C210.8,104.8,210.5,103.9,210.4,103z"/>
		<path class="st3" d="M219.4,104.4c0.2-0.2,0.6-0.4,1.2-0.6c0.6-0.2,1.2-0.4,1.9-0.6c0.7-0.2,1.4-0.4,2.1-0.5s1.3-0.3,1.7-0.3
			c1.2-0.2,2.3-0.3,3.4-0.3c1.1-0.1,2.3-0.1,3.4,0c0.2,0,0.3,0,0.4,0.1c0.1,0.1,0.1,0.2,0.1,0.3c0,0.1-0.1,0.2-0.1,0.3
			c-0.1,0.1-0.2,0.1-0.3,0.1c-1.2,0-2.3,0-3.4,0.1c-1.1,0.1-2.2,0.3-3.3,0.5c-0.9,0.2-1.9,0.4-2.9,0.8c-1,0.3-2,0.7-3,1.2
			c-0.2,0.1-0.4,0.1-0.6,0.1s-0.4-0.1-0.6-0.2c-0.1-0.1-0.2-0.3-0.2-0.5C219.2,104.7,219.3,104.6,219.4,104.4z M229.8,86
			c0-0.5,0-0.8-0.1-1c-0.1-0.2-0.3-0.3-0.6-0.3c-0.1,0-0.4,0-0.6,0.1c-0.3,0.1-0.5,0.2-0.7,0.3c-0.6,0.5-1.3,0.9-1.8,1.4
			c-0.6,0.4-1.3,1-2.1,1.8c-0.4,0.3-0.8,0.4-1.2,0.4c-0.3,0-0.4-0.2-0.4-0.4s0.2-0.5,0.4-0.6c0.6-0.6,1.3-1.1,2.1-1.7
			c0.7-0.6,1.5-1.2,2.3-1.7c0.4-0.3,0.8-0.5,1.2-0.6c0.4-0.1,0.8-0.2,1.2-0.2c0.5,0,0.9,0.2,1.2,0.5c0.3,0.4,0.4,0.8,0.4,1.4
			c0,1.3-0.2,2.5-0.4,3.6c-0.3,1.1-0.5,2.1-0.9,3.1c-0.2,0.6-0.4,1.3-0.6,2s-0.4,1.4-0.6,2c0,0.2-0.1,0.4-0.3,0.5
			c-0.1,0.1-0.3,0.2-0.4,0.2c-0.1,0-0.2-0.1-0.3-0.2s0-0.3,0-0.5c0.1-0.9,0.3-1.7,0.6-2.5c0.3-0.8,0.5-1.7,0.7-2.6
			c0.1-0.4,0.2-0.8,0.3-1.2s0.2-0.8,0.3-1.2c0.1-0.4,0.1-0.8,0.2-1.2C229.7,87,229.7,86.5,229.8,86z M224.9,92.5
			c0.3,0,0.5,0.1,0.6,0.3c0.1,0.2,0.1,0.4,0,0.6c-0.3,0.6-0.5,1.4-0.6,2.2c-0.2,0.8-0.3,1.6-0.4,2.3c-0.1,0.8-0.2,1.5-0.3,2.1
			c-0.1,0.6-0.3,1.1-0.5,1.7c0,0.1-0.1,0.2-0.3,0.3c-0.1,0.1-0.2,0.1-0.3,0.1c-0.1,0-0.2-0.1-0.3-0.2c-0.1-0.1-0.1-0.2,0-0.4
			c0.1-0.3,0.1-0.7,0.2-1.3c0.1-0.6,0.2-1.4,0.3-2.4c0.1-1,0.2-1.8,0.3-2.4c0.1-0.6,0.3-1.3,0.5-1.8c0.1-0.2,0.2-0.4,0.3-0.6
			C224.6,92.6,224.8,92.5,224.9,92.5z"/>
		<path class="st3" d="M262.6,97.3c-0.7,0.6-1.4,1.3-2.1,2c-0.7,0.7-1.5,1.5-2.2,2.3c0.8,0.6,1.7,1.2,2.5,1.9
			c0.8,0.7,1.6,1.5,2.3,2.3c0.2,0.3,0.3,0.5,0.1,0.7c-0.2,0.2-0.4,0.1-0.6-0.1c-0.8-0.8-1.6-1.5-2.5-2.2c-0.9-0.7-1.8-1.3-2.6-1.8
			c-0.6,0.7-1.2,1.5-1.8,2.3c-0.6,0.8-1.1,1.6-1.7,2.5c-0.1,0.2-0.3,0.4-0.4,0.4c-0.1,0.1-0.2,0.1-0.3,0s-0.2-0.2-0.2-0.3
			c0-0.1,0-0.3,0.1-0.5c0.5-0.8,1-1.7,1.6-2.6c0.6-0.9,1.2-1.8,1.9-2.7c-0.6-0.3-1.1-0.6-1.7-0.9c-0.6-0.3-1.2-0.6-1.7-0.8
			c-0.9,1-1.8,2-2.6,3c-0.9,1.1-1.7,2.3-2.5,3.6c-0.1,0.2-0.3,0.4-0.4,0.5c-0.1,0.1-0.3,0.1-0.4,0c-0.1,0-0.2-0.1-0.2-0.3
			s0-0.3,0-0.5c0.4-0.8,0.9-1.8,1.6-2.8c0.7-1,1.5-2.1,2.4-3.1c0.9-1,1.8-2,2.7-2.9c0.9-0.9,1.8-1.7,2.6-2.3
			c0.1-0.1,0.2-0.1,0.4-0.1c0.1,0,0.2,0.1,0.3,0.3c0.1,0.1,0.1,0.3,0.1,0.4c0,0.2,0,0.3-0.2,0.4L254,99c1.1,0.6,2.1,1.2,3.2,1.9
			c0.8-1,1.6-1.8,2.4-2.6c0.8-0.8,1.6-1.4,2.2-1.9c0.1,0,0.3,0,0.4,0c0.1,0,0.3,0.1,0.3,0.2c0.1,0.1,0.1,0.2,0.1,0.4
			S262.7,97.2,262.6,97.3z M248.7,94.5c-0.4-0.1-0.6-0.4-0.8-0.7c-0.2-0.3-0.2-0.7-0.3-1.1c0-0.4,0-0.8,0.1-1.2s0.2-0.7,0.3-1
			c0.1-0.4,0.3-0.8,0.5-1.2c0.2-0.4,0.4-0.8,0.6-1.2c0.2-0.4,0.5-0.7,0.7-1c0.3-0.3,0.5-0.6,0.8-0.8c-0.1-0.2-0.1-0.3,0.1-0.5
			c0.2-0.1,0.4-0.2,0.7-0.1c1,0.1,1.7,0.3,2.1,0.8c0.4,0.5,0.6,1,0.6,1.6c0,0.5-0.1,1.1-0.4,1.8c-0.3,0.7-0.6,1.2-1,1.7
			c-0.3,0.4-0.6,0.7-0.9,1.1c-0.3,0.4-0.6,0.7-1,1s-0.7,0.5-1,0.7C249.4,94.6,249.1,94.6,248.7,94.5L248.7,94.5z M251.6,86.9
			c-0.4,0.5-0.8,1-1.3,1.7s-0.8,1.3-1,1.9c-0.3,0.8-0.4,1.5-0.4,2c0,0.5,0.1,0.8,0.4,0.8c0.1,0,0.3,0,0.5-0.2s0.4-0.4,0.7-0.6
			c0.2-0.3,0.5-0.5,0.7-0.8c0.2-0.3,0.4-0.5,0.5-0.7c0.2-0.3,0.4-0.7,0.7-1.2c0.3-0.5,0.4-1.1,0.4-1.7c0-0.3-0.1-0.6-0.3-0.8
			C252.3,87,252,86.9,251.6,86.9z M262.1,81.9c0-0.2,0.1-0.4,0.3-0.5c0.1-0.1,0.3-0.1,0.4-0.1c0.1,0,0.3,0.1,0.4,0.2
			c0.1,0.1,0.2,0.3,0.2,0.5c-0.1,1.1-0.3,2.2-0.6,3.3c-0.2,1.2-0.5,2.2-0.7,3.1c-0.2,0.8-0.4,1.8-0.7,2.8c-0.2,1.1-0.5,2.2-0.6,3.5
			c0,0.2-0.1,0.3-0.2,0.4c-0.1,0.1-0.2,0.1-0.3,0.1c-0.1,0-0.2-0.1-0.3-0.2c-0.1-0.1-0.1-0.2-0.1-0.4c0.1-1.3,0.3-2.5,0.4-3.5
			s0.4-2.1,0.6-3.1c0.2-0.8,0.4-1.7,0.6-2.7C261.7,84.4,261.9,83.3,262.1,81.9z"/>
		<path class="st3" d="M273.1,89.6c-0.4,0-0.8,0-1.1,0.1c-0.4,0-0.7,0-1.1,0.1c-0.8,1.3-1.5,2.6-2.1,4c-0.6,1.4-0.9,2.7-1.1,3.8
			c-0.1,0.4,0,0.7,0.1,0.8c0.1,0.1,0.4,0.1,0.9,0c0.5-0.1,0.9-0.2,1.5-0.4c0.5-0.2,1.1-0.3,1.6-0.5c0.5-0.2,1.1-0.3,1.6-0.4
			c0.5-0.1,1-0.2,1.5-0.2c0.3,0,0.4,0.1,0.5,0.3c0,0.2-0.1,0.4-0.3,0.4c-0.5,0.1-1,0.3-1.5,0.5c-0.6,0.2-1.1,0.4-1.7,0.6
			c-0.6,0.2-1.2,0.4-1.7,0.6c-0.6,0.2-1,0.3-1.5,0.5c-0.3,0.1-0.6,0.1-0.9,0.1c-0.3,0-0.6-0.1-0.8-0.2s-0.4-0.3-0.5-0.6
			s-0.2-0.6-0.1-1c0.1-0.7,0.2-1.4,0.4-2.1c0.2-0.7,0.5-1.5,0.8-2.2c0.3-0.7,0.6-1.4,1-2.1c0.3-0.7,0.7-1.3,1-1.8
			c-0.6,0.1-1.2,0.2-1.7,0.3s-1.1,0.3-1.6,0.4c-0.2,0-0.3,0.1-0.4,0c-0.1,0-0.2-0.1-0.3-0.2c0-0.1-0.1-0.2-0.1-0.3
			c0-0.1,0.1-0.2,0.2-0.3c0.3-0.2,0.8-0.4,1.4-0.6c0.6-0.2,1.2-0.3,1.9-0.5c0.7-0.1,1.4-0.2,2.1-0.3s1.4-0.1,2-0.1
			c0.2,0,0.3,0,0.4,0.1c0.1,0.1,0.1,0.2,0.1,0.3c0,0.2,0,0.4,0,0.5C273.4,89.6,273.3,89.6,273.1,89.6z M276.3,105.8
			c0-1.9,0.1-3.7,0.4-5.6c0.3-1.9,0.6-3.8,1-5.7c0.3-1.4,0.6-2.8,0.9-4.2c0.3-1.4,0.6-2.9,0.9-4.5c0-0.2,0.1-0.4,0.1-0.8
			c0-0.3,0-0.6,0.1-0.8c0-0.2,0.1-0.4,0.2-0.6c0.1-0.2,0.3-0.3,0.6-0.2c0.3,0,0.4,0.2,0.5,0.3s0.1,0.4,0.1,0.6c0,0.4,0,0.8-0.1,1.3
			c-0.2,1.3-0.5,2.7-0.8,4.1c-0.3,1.4-0.6,2.8-0.9,4.2c0.6-0.3,1.3-0.6,2.1-0.8c0.8-0.2,1.6-0.4,2.4-0.4c0.4,0,0.6,0.1,0.6,0.4
			c0,0.2-0.2,0.4-0.4,0.4c-1.1,0.2-2.1,0.5-2.9,0.8c-0.8,0.3-1.5,0.7-2.2,1.1c-0.2,0.8-0.4,1.7-0.5,2.6s-0.3,1.8-0.5,2.7
			c-0.1,0.9-0.3,1.8-0.3,2.6c-0.1,0.8-0.1,1.6-0.1,2.3c0,0.2-0.1,0.4-0.2,0.6c-0.1,0.2-0.3,0.2-0.5,0.2
			C276.4,106.6,276.3,106.3,276.3,105.8z"/>
		<path class="st3" d="M287.5,87.3c0.9-0.5,1.7-0.8,2.4-1c0.7-0.2,1.3-0.3,1.8-0.4c0.8-0.1,1.3,0.1,1.6,0.5c0.3,0.5,0.4,1.1,0.2,1.8
			c-0.1,0.6-0.4,1.4-0.8,2.2c-0.4,0.9-0.7,1.7-1,2.4c-0.4,0.8-0.8,1.6-1.1,2.4c-0.4,0.8-0.6,1.5-0.7,2.1c0,0.4,0.1,0.6,0.6,0.5
			c0.6-0.1,1.4-0.4,2.5-0.9c0.2-0.1,0.3-0.1,0.5,0.1c0.1,0.2,0.1,0.4-0.1,0.5c-0.2,0.2-0.4,0.3-0.7,0.5c-0.3,0.2-0.6,0.3-0.9,0.4
			c-0.3,0.1-0.6,0.2-0.9,0.3c-0.3,0.1-0.5,0.1-0.7,0.2c-0.5,0-0.8,0-1-0.3c-0.2-0.2-0.4-0.5-0.4-1c0-0.7,0.2-1.5,0.5-2.4
			c0.4-0.9,0.8-1.8,1.2-2.8c0.3-0.7,0.7-1.4,1-2.2c0.3-0.8,0.6-1.5,0.8-2.2c0.1-0.5,0.1-0.9,0-1.1c-0.1-0.2-0.3-0.2-0.6-0.2
			c-1.3,0.2-2.7,0.7-4.2,1.5l-0.1,0.8c-0.1,0.8-0.2,1.7-0.3,2.6c-0.1,0.9-0.2,1.7-0.3,2.5c-0.1,0.8-0.2,1.6-0.3,2.3
			s-0.1,1.3-0.1,1.8c0,0.2-0.1,0.3-0.2,0.4s-0.2,0.2-0.4,0.2c-0.1,0-0.2,0-0.4-0.1c-0.1-0.1-0.2-0.2-0.2-0.4c0-0.8,0-1.8,0.1-3
			s0.2-2.4,0.4-3.6s0.3-2.3,0.5-3.3c0.2-1,0.3-1.7,0.5-2.2c0-0.1,0.1-0.2,0.2-0.3c0.1-0.1,0.3-0.1,0.4-0.1c0.1,0,0.2,0,0.3,0.1
			c0.1,0.1,0.1,0.1,0.1,0.2L287.5,87.3z M300.6,91.2c0.3-1.5,0.6-3,0.8-4.4c0.3-1.4,0.6-2.9,1.1-4.4c0.1-0.3,0.2-0.5,0.3-0.6
			c0.2-0.1,0.3-0.2,0.5-0.2c0.4,0,0.6,0.1,0.6,0.3c0,0.2,0,0.5-0.1,0.8c-0.3,1-0.6,2.3-1,3.8c-0.3,1.5-0.7,3.1-1,4.8
			c-0.2,1.1-0.4,2.1-0.6,2.9c-0.2,0.8-0.3,1.5-0.4,2.1c-0.1,0.6-0.2,1.1-0.3,1.5s-0.1,0.8-0.1,1.1c0,0.4-0.1,0.6-0.3,0.7
			c-0.1,0.1-0.3,0.2-0.4,0.2c-0.1,0-0.2,0-0.3-0.1c0-0.1,0-0.2,0-0.3c0-0.9,0.1-1.9,0.3-3.1c0.1-1.2,0.3-2.4,0.6-3.8
			c-1.1,0.1-2.2,0.3-3.1,0.7s-1.9,0.8-2.9,1.3c-0.2,0.1-0.3,0.1-0.5,0.1c-0.2,0-0.3-0.1-0.4-0.3c0-0.3,0.1-0.5,0.3-0.7
			c0.4-0.2,0.9-0.5,1.5-0.7c0.5-0.2,1.1-0.4,1.7-0.6c0.6-0.2,1.2-0.3,1.8-0.4c0.6-0.1,1.2-0.1,1.8-0.1c0-0.1,0-0.2,0.1-0.4
			C300.6,91.4,300.6,91.3,300.6,91.2z M294,104.9c0-0.6,0.1-1.3,0.4-2.1c0.3-0.8,0.7-1.6,1.3-2.3c0.2-0.3,0.5-0.4,0.8-0.2
			c0.3,0.1,0.3,0.3,0.2,0.6c-0.4,0.7-0.7,1.4-0.9,2c-0.2,0.6-0.4,1.1-0.4,1.6c0,0.3,0,0.4,0.2,0.5c0.2,0.1,0.5,0.1,1,0.1
			c0.7-0.1,1.4-0.2,2.2-0.4c0.8-0.2,1.7-0.5,2.6-0.9c0.3-0.1,0.5-0.1,0.6,0.1c0.1,0.2,0.1,0.4-0.2,0.6c-0.3,0.2-0.7,0.5-1.2,0.7
			c-0.5,0.2-1.1,0.4-1.7,0.6c-0.6,0.2-1.2,0.3-1.8,0.4c-0.6,0.1-1.2,0.2-1.7,0.2c-0.4,0-0.8-0.1-1-0.4
			C294.2,105.6,294,105.3,294,104.9z M300.1,88.6c-0.9,0.1-1.7,0.3-2.4,0.5c-0.7,0.3-1.6,0.7-2.6,1.2c-0.1,0.1-0.3,0.1-0.5,0.1
			s-0.3-0.1-0.4-0.2c0-0.1-0.1-0.2,0-0.4c0-0.1,0.1-0.2,0.2-0.3c0.4-0.2,0.8-0.5,1.3-0.7c0.5-0.2,0.9-0.4,1.4-0.5
			c0.5-0.1,1-0.3,1.5-0.3c0.5-0.1,1-0.1,1.4-0.1c0.2,0,0.3,0,0.4,0.1s0.1,0.2,0.1,0.3c0,0.1-0.1,0.2-0.1,0.3S300.3,88.6,300.1,88.6z
			"/>
		<path class="st3" d="M306.1,106.6c0.4-0.4,0.9-0.9,1.3-1.5c0.5-0.6,0.7-1.2,0.8-1.9c-0.4,0-0.7-0.1-0.9-0.4
			c-0.2-0.3-0.2-0.7,0-1.1c0.1-0.2,0.3-0.4,0.5-0.6c0.2-0.2,0.5-0.2,0.9-0.2c0.3,0,0.5,0.1,0.6,0.3s0.2,0.3,0.2,0.5
			c0,0.2,0,0.5,0,0.7c0,0.3-0.1,0.5-0.2,0.8c-0.2,0.8-0.6,1.5-1.1,2.3s-1.1,1.3-1.7,1.8c-0.1,0.1-0.2,0-0.4-0.1
			C306,106.9,306,106.7,306.1,106.6z"/>
		<path class="st3" d="M69.4,137.1c-1.2,0.2-2.3,0.3-3.4,0.5c-1,0.2-2,0.4-3,0.6c-0.5,0.8-0.9,1.8-1.3,2.9c-0.4,1.1-0.6,2.3-0.6,3.6
			c0.3-0.1,0.5-0.1,0.7-0.1c0.2,0,0.4,0,0.7-0.1c1.2-0.1,2,0.1,2.5,0.6c0.4,0.5,0.7,1.1,0.6,1.8c0,0.7-0.2,1.5-0.4,2.3
			c-0.2,0.8-0.5,1.5-0.7,2.3c-0.3,0.8-0.6,1.6-0.9,2.4c-0.3,0.8-0.5,1.6-0.6,2.5c0,0.3-0.1,0.4-0.2,0.5c-0.1,0.1-0.3,0.1-0.4,0.1
			c-0.1,0-0.2-0.1-0.4-0.2c-0.1-0.1-0.2-0.3-0.2-0.5c0-0.7,0.1-1.4,0.3-2.1c0.2-0.7,0.4-1.4,0.6-2.2c0.2-0.7,0.5-1.5,0.7-2.3
			c0.2-0.8,0.4-1.6,0.4-2.4c0-0.4-0.1-0.8-0.3-1c-0.3-0.3-0.7-0.4-1.3-0.3c-1.1,0.1-2.1,0.4-3,0.8c-0.9,0.4-1.6,0.8-2.2,1.3
			c-0.3,0.2-0.5,0.4-0.7,0.5c-0.2,0.1-0.5,0.1-0.8,0c-0.2-0.1-0.3-0.3-0.3-0.6c0-0.3,0.1-0.5,0.3-0.7c0.5-0.5,1.2-1,1.9-1.3
			c0.7-0.4,1.5-0.6,2.3-0.9c0-1.4,0.2-2.6,0.4-3.6c0.2-1,0.6-1.9,0.9-2.7c-1.4,0.4-2.9,0.8-4.3,1.1c-1.4,0.4-3,0.7-4.7,0.9
			c-0.6,0.1-0.9-0.1-0.9-0.7c0-0.2,0.1-0.4,0.2-0.6s0.4-0.3,0.7-0.3c1.4-0.2,2.8-0.4,4.2-0.7c1.4-0.3,2.8-0.6,4.2-1
			c1.4-0.3,2.8-0.6,4.3-0.9c1.5-0.3,3-0.5,4.6-0.6c0.2,0,0.3,0,0.4,0.1c0.1,0.1,0.1,0.2,0.1,0.3s0,0.2-0.1,0.4
			C69.7,137,69.6,137.1,69.4,137.1z M64.8,124.3c0-0.8-0.3-1.2-0.9-1.4c-0.6-0.1-1.3-0.1-2.1,0.3c-0.2,0.1-0.5,0.2-0.8,0.4
			c-0.3,0.2-0.6,0.4-1,0.7c-0.3,0.3-0.7,0.6-1,1c-0.3,0.4-0.5,0.8-0.6,1.2c-0.1,0.4-0.3,0.6-0.6,0.5c-0.2,0-0.5-0.1-0.7-0.3
			c-0.3-0.2-0.3-0.5-0.3-0.8c0.1-0.4,0.2-0.7,0.4-0.9c0.4-0.6,0.9-1.1,1.5-1.7c0.7-0.6,1.4-1,2.3-1.3c0.7-0.3,1.4-0.4,2.1-0.5
			c0.7,0,1.3,0,1.8,0.2c0.5,0.2,0.9,0.5,1.2,0.9c0.3,0.4,0.4,1,0.4,1.6c0,0.7-0.1,1.4-0.2,2c-0.1,0.6-0.2,1.1-0.4,1.6
			c-0.2,0.5-0.4,0.9-0.6,1.4c-0.2,0.4-0.4,0.9-0.7,1.4c-0.3,0.5-0.5,1.2-0.8,2s-0.5,1.6-0.7,2.4c-0.1,0.3-0.3,0.4-0.6,0.5
			c-0.3,0-0.5-0.2-0.5-0.6c0-0.8,0.1-1.7,0.4-2.5c0.3-0.9,0.6-1.6,0.9-2.4c0.2-0.4,0.4-0.8,0.6-1.2c0.2-0.4,0.3-0.8,0.5-1.2
			c0.1-0.4,0.3-0.9,0.4-1.4C64.8,125.6,64.8,125,64.8,124.3z"/>
		<path class="st3" d="M81.9,131.6c0.4-0.7,0.6-1.3,0.4-1.8c-0.2-0.5-0.5-0.7-1-0.6c-0.8,0.1-1.6,0.3-2.4,0.7
			c-0.8,0.4-1.4,0.9-1.7,1.3c-0.1,0.1-0.2,0.2-0.4,0.1c-0.2,0-0.3-0.1-0.5-0.2c-0.1-0.1-0.3-0.2-0.3-0.4c-0.1-0.2-0.1-0.3,0-0.5
			c0.1-0.2,0.3-0.4,0.6-0.7s0.7-0.6,1.2-0.8c0.5-0.3,1.1-0.5,1.7-0.7c0.6-0.2,1.3-0.3,2-0.3c0.9,0,1.6,0.2,2.1,0.6
			c0.5,0.4,0.7,0.9,0.7,1.4c0,0.3-0.1,0.7-0.2,1.1c-0.1,0.4-0.3,0.9-0.6,1.3c-0.5,0.9-1,1.8-1.7,2.7s-1.3,1.9-2,2.9
			c1.3,1,2.5,2,3.5,3c1,0.9,1.8,1.9,2.5,3c0.1,0.1,0.1,0.3,0.1,0.4c0,0.2-0.1,0.3-0.2,0.4s-0.2,0.2-0.4,0.2c-0.1,0-0.3-0.1-0.4-0.2
			c-0.8-0.9-1.8-1.8-2.8-2.7c-1-0.9-2.2-1.7-3.5-2.5c-0.9,1.3-1.8,2.7-2.8,4.2s-1.8,3-2.6,4.7c-0.4,0.7-0.7,1-1.1,1
			c-0.4,0-0.5-0.5-0.1-1.4c0.6-1.5,1.3-3,2-4.3c0.8-1.3,1.6-2.7,2.4-3.9c0.8-1.3,1.7-2.6,2.6-3.8C80.1,134.4,81,133,81.9,131.6z
			 M92.2,145.9c0,0.2-0.1,0.3-0.2,0.4c-0.1,0.1-0.3,0.2-0.4,0.2c-0.1,0-0.3,0-0.4-0.1c-0.1-0.1-0.2-0.3-0.2-0.5
			c-0.1-1.4-0.1-3,0.1-4.5s0.4-3.1,0.6-4.7l0.3-2c-1.1,0.1-2.1,0.3-3.1,0.6c-1,0.3-2.1,0.8-3.1,1.4c-0.2,0.1-0.3,0.1-0.4,0
			c-0.1,0-0.2-0.1-0.3-0.3c-0.1-0.1-0.1-0.3-0.1-0.5c0-0.2,0.1-0.4,0.3-0.6c0.7-0.6,1.6-1.1,2.9-1.5c1.2-0.4,2.6-0.7,4.1-0.7
			c0.1-0.7,0.2-1.5,0.2-2.2c0.1-0.7,0.1-1.4,0.1-2.1c0-0.4,0.2-0.6,0.5-0.6c0.4-0.1,0.7,0,0.9,0c0.4,0.1,0.5,0.6,0.5,1.4
			c-0.1,1-0.2,2-0.4,3.1c-0.2,1.1-0.4,2.3-0.7,3.6c-0.1,0.7-0.3,1.4-0.4,2.1c-0.1,0.7-0.3,1.3-0.4,2.1s-0.2,1.5-0.3,2.4
			C92.3,143.8,92.2,144.8,92.2,145.9z M97.2,154.6c0,0.2-0.1,0.3-0.2,0.4c-0.1,0.1-0.3,0.2-0.4,0.2c-0.2,0-0.3,0-0.4-0.1
			c-0.1-0.1-0.2-0.2-0.2-0.5c-0.1-3.3,0.1-6.7,0.6-10.4c0.4-3.6,0.9-7.2,1.4-10.7c0.3-2.1,0.6-4.1,0.8-6c0.3-2,0.5-3.8,0.6-5.6
			c0-0.4,0.2-0.6,0.5-0.6c0.3,0,0.6,0,0.9,0c0.4,0.1,0.5,0.6,0.5,1.4c-0.1,1.7-0.3,3.5-0.6,5.4c-0.3,1.9-0.6,3.9-1,6
			c-0.5,3.1-1,6.3-1.4,9.7C97.8,147.2,97.5,150.8,97.2,154.6z"/>
		<path class="st3" d="M113.2,136.7c0.4,0,0.7,0.1,0.7,0.4c0.1,0.3-0.2,0.5-0.7,0.6c-0.5,0.1-1.2,0.3-1.8,0.6
			c-0.7,0.2-1.3,0.5-2,0.8c-0.7,0.3-1.3,0.6-1.9,0.9c-0.6,0.3-1.2,0.6-1.7,0.9c-0.2,0.1-0.4,0.2-0.6,0.1c-0.2,0-0.4-0.2-0.5-0.3
			c-0.1-0.2-0.2-0.3-0.1-0.5c0-0.2,0.2-0.4,0.4-0.5c1-0.6,2.3-1.2,3.7-1.8C110.2,137.2,111.7,136.8,113.2,136.7z M117.1,131
			c0.1-0.7,0-1.3-0.2-1.6c-0.2-0.3-0.7-0.4-1.6-0.2c-1.1,0.3-2.1,0.7-3.2,1.2c-1.1,0.6-2,1.1-2.6,1.6c-0.4,0.3-0.6,0.4-0.9,0.5
			c-0.2,0-0.5,0-0.8-0.1c-0.3-0.1-0.4-0.3-0.3-0.5c0-0.2,0.2-0.4,0.4-0.7c0.4-0.3,0.8-0.7,1.4-1c0.6-0.4,1.2-0.7,1.8-1
			c0.7-0.3,1.3-0.6,2-0.9c0.7-0.3,1.4-0.4,2-0.5c1.4-0.3,2.5-0.1,3.1,0.4c0.7,0.5,0.9,1.5,0.6,3.1c-0.4,2.4-0.8,5-1.5,7.6
			c-0.6,2.7-1.6,5.2-3,7.6c-0.1,0.2-0.2,0.3-0.4,0.3c-0.1,0-0.3,0-0.4,0c-0.1,0-0.2-0.1-0.3-0.3c-0.1-0.1-0.1-0.3,0-0.5
			c1-2.4,1.8-4.8,2.4-7.2C116.4,136.4,116.8,133.8,117.1,131z M127.9,154.5c0,0.2-0.1,0.3-0.2,0.4c-0.1,0.1-0.2,0.2-0.4,0.2
			c-0.1,0-0.3,0-0.4-0.1c-0.1-0.1-0.2-0.2-0.2-0.5c-0.3-2.5-0.2-5.4,0.1-8.6s0.6-6.7,1-10.3c-1.4,0.3-2.7,0.6-3.8,1.1
			c-1.1,0.5-2.1,1-3,1.4c-0.2,0.1-0.4,0.2-0.6,0.1c-0.2-0.1-0.4-0.2-0.5-0.3c-0.1-0.1-0.1-0.3-0.1-0.5c0-0.2,0.2-0.4,0.4-0.5
			c1-0.5,2.2-1,3.5-1.5c1.3-0.5,2.7-0.8,4.2-0.9c0.2-1.9,0.4-3.8,0.5-5.8c0.2-1.9,0.3-3.9,0.3-5.9c0-0.4,0.1-0.6,0.4-0.7
			c0.3-0.1,0.5-0.1,0.8,0c0.3,0.1,0.5,0.3,0.6,0.5c0.1,0.3,0.1,0.6,0.1,1c-0.2,2.4-0.4,4.9-0.7,7.5c-0.3,2.6-0.6,5.3-0.9,8
			c-0.3,2.7-0.6,5.4-0.8,8C128,149.7,127.9,152.2,127.9,154.5z"/>
		<path class="st3" d="M140.6,140.4c0.5-0.6,0.8-1.1,0.8-1.3c0-0.2-0.3-0.3-0.9-0.3c-0.9,0.1-1.8,0.2-2.6,0.5
			c-0.9,0.3-1.8,0.6-2.8,1c-0.3,0.1-0.4,0.1-0.6,0c-0.1-0.1-0.2-0.2-0.2-0.4c0-0.2,0-0.3,0.1-0.5c0.1-0.2,0.2-0.3,0.4-0.4
			c0.5-0.3,1.2-0.7,2-1.3c0.8-0.6,1.6-1.3,2.5-2c0.8-0.7,1.6-1.4,2.3-2.1c0.7-0.7,1.2-1.2,1.5-1.6c0.4-0.5,0.4-0.9,0.1-1.3
			c-0.3-0.4-0.8-0.6-1.7-0.6c-0.7,0-1.2,0.1-1.7,0.3c-0.5,0.2-0.8,0.4-1.2,0.6s-0.6,0.5-0.7,0.7c-0.2,0.3-0.4,0.5-0.5,0.7
			c-0.1,0.1-0.2,0.2-0.4,0.2c-0.2,0-0.4,0-0.6-0.1c-0.2-0.1-0.3-0.2-0.4-0.3c-0.1-0.1-0.1-0.3,0-0.5c0.1-0.4,0.4-0.8,0.7-1.1
			c0.3-0.4,0.7-0.7,1.2-1c0.5-0.3,1-0.5,1.6-0.7s1.2-0.2,1.9-0.2c1.8,0.1,2.9,0.4,3.5,1.2c0.6,0.7,0.5,1.6-0.1,2.6
			c-0.3,0.5-0.7,1-1.2,1.6c-0.5,0.5-1,1-1.6,1.5c-0.5,0.5-1.1,0.9-1.6,1.3c-0.5,0.4-1,0.8-1.3,1c0.7-0.2,1.4-0.3,2-0.3
			c0.7-0.1,1.3,0,1.7,0.1c0.6,0.1,0.9,0.5,0.9,1c0,0.6-0.4,1.4-1.1,2.2c-0.8,0.9-1.6,1.9-2.5,2.8c-0.9,0.9-1.7,2-2.5,3.1
			c-0.3,0.4-0.4,0.7-0.4,0.9c0,0.3,0.3,0.3,0.9,0.2c0.5-0.1,1.1-0.2,1.9-0.3c0.7-0.1,1.5-0.3,2.3-0.4s1.6-0.2,2.5-0.3
			c0.8-0.1,1.6-0.1,2.3-0.1c0.4,0,0.7,0.2,0.7,0.5c0,0.3-0.1,0.5-0.5,0.6c-1.5,0.3-3.2,0.5-4.8,0.8c-1.7,0.3-3.3,0.7-4.8,1.1
			c-0.4,0.1-0.9,0.2-1.4,0.2c-0.5,0-0.8-0.2-1-0.5c-0.2-0.3-0.3-0.6-0.2-1.1c0.1-0.4,0.2-0.8,0.4-1.2c0.3-0.5,0.7-1,1.1-1.6
			c0.4-0.6,0.9-1.1,1.4-1.7c0.5-0.6,1-1.2,1.6-1.8C139.7,141.5,140.2,140.9,140.6,140.4z M151.7,154.6c0-1.5,0-3.1,0.1-4.8
			c0.1-1.6,0.2-3.3,0.3-4.9c0.1-1.6,0.3-3.3,0.5-4.8s0.3-3.1,0.5-4.5c0.1-1.2,0.2-2.4,0.4-3.3c0.1-1,0.2-1.9,0.3-2.8
			c0.1-0.9,0.2-1.8,0.2-2.8c0-0.9,0.1-2,0.1-3.2c0-0.4,0-0.8,0.1-1.1c0.1-0.3,0.4-0.4,1-0.5c0.4,0,0.7,0.1,0.8,0.4
			c0.1,0.3,0.2,0.7,0.2,1.1c0,0.5,0,1.2-0.1,2.1c-0.1,0.8-0.1,1.8-0.2,2.8c-0.1,1-0.2,2.2-0.4,3.4s-0.3,2.4-0.4,3.7
			c-0.4,3.3-0.7,6.6-1.1,9.9c-0.4,3.3-0.7,6.5-0.8,9.6c0,0.3-0.1,0.4-0.2,0.6c-0.1,0.1-0.3,0.2-0.5,0.2c-0.2,0-0.3-0.1-0.5-0.2
			C151.8,155.1,151.7,154.9,151.7,154.6z"/>
		<path class="st3" d="M161.5,146c-0.8-0.1-1.3-0.5-1.6-1.1c-0.2-0.6-0.3-1.3-0.3-2c0.1-0.7,0.2-1.5,0.5-2.2
			c0.2-0.7,0.4-1.3,0.6-1.8c0.4-1.2,1-2.5,1.5-3.8c0.6-1.3,1.3-2.6,2.1-3.8c0.1-0.2,0.3-0.3,0.5-0.3c0.2,0,0.3,0,0.5,0.1
			s0.3,0.2,0.4,0.4c0.1,0.2,0.1,0.3,0.1,0.5c0.8,0.2,1.4,0.4,1.9,0.7c0.5,0.3,0.9,0.7,1.2,1.1s0.5,0.9,0.6,1.4
			c0.1,0.5,0.2,1,0.1,1.5l-0.1,0.9c0.7-0.4,1.5-0.7,2.4-1.1c0.9-0.3,1.8-0.6,2.8-0.9c1-0.3,1.9-0.5,2.9-0.7c0.9-0.2,1.8-0.4,2.6-0.5
			c0.3-1.7,0.5-3.4,0.8-5.1c0.3-1.6,0.6-3.2,0.9-4.8c0.1-0.4,0.2-0.6,0.4-0.7c0.2-0.1,0.4-0.2,0.6-0.1c0.4,0,0.7,0.1,0.8,0.3
			c0.2,0.1,0.2,0.4,0.1,0.8c-0.9,4.3-1.7,8.8-2.3,13.5c-0.6,4.7-1.1,9.6-1.5,14.5c0,0.4-0.1,0.6-0.3,0.8s-0.3,0.3-0.5,0.3
			c-0.2,0-0.3,0-0.5-0.2c-0.1-0.1-0.2-0.4-0.2-0.7c0.1-2.5,0.2-5.3,0.4-8.2c0.2-3,0.5-5.9,0.9-9c-0.9,0.2-1.8,0.4-2.8,0.6
			c-1,0.2-2,0.5-2.9,0.8c-1,0.3-1.9,0.7-2.7,1.1c-0.9,0.4-1.6,0.8-2.2,1.3c-0.1,0.1-0.2,0.1-0.3,0.2c-0.1,0.1-0.3,0.1-0.4,0.2
			c-0.2,0.4-0.3,0.7-0.6,1c-0.2,0.3-0.4,0.6-0.6,0.9c-0.4,0.5-0.8,1-1.3,1.5c-0.5,0.5-1,1-1.6,1.3c-0.6,0.4-1.1,0.7-1.7,0.9
			C162.5,146,162,146.1,161.5,146z M165.2,133.3c-0.4,0.7-0.9,1.6-1.4,2.6c-0.5,1-1,2.2-1.4,3.5c-0.4,1.2-0.6,2.2-0.7,3.1
			c-0.1,0.9,0,1.4,0.4,1.4c0.6,0.1,1.2-0.2,2-0.7s1.5-1.3,2.3-2.4c0.5-0.8,0.9-1.5,1.2-2.2c0.3-0.7,0.4-1.4,0.4-2.1
			c0-0.7-0.2-1.4-0.6-2C166.9,134,166.2,133.6,165.2,133.3z"/>
		<path class="st3" d="M194.9,127.2c0.2-0.3,0.5-0.4,0.7-0.3c0.3,0,0.5,0.1,0.6,0.3c0.4,0.3,0.5,0.7,0.2,1.1
			c-1.2,1.5-2.3,3.5-3.6,5.8c0.4,0.7,0.8,1.5,1.1,2.3c0.4,0.8,0.7,1.7,0.9,2.6c0.3,0.9,0.5,1.7,0.7,2.5c0.2,0.8,0.3,1.6,0.4,2.3
			c0,0.3-0.1,0.5-0.4,0.6c-0.3,0.1-0.5,0-0.6-0.4c-0.2-0.5-0.4-1.1-0.6-1.8c-0.2-0.7-0.5-1.4-0.7-2.1c-0.3-0.7-0.6-1.4-0.8-2.1
			c-0.3-0.7-0.6-1.3-0.9-1.9c-1,2-1.9,4-2.7,6c-0.8,2.1-1.5,4-1.9,5.7c-0.1,0.4-0.4,0.7-0.7,0.7c-0.4,0-0.5-0.3-0.5-1
			c0.1-0.6,0.2-1.4,0.6-2.4c0.3-1,0.7-2.2,1.2-3.5c0.5-1.3,1-2.6,1.6-4c0.6-1.4,1.2-2.7,1.8-4c0.6-1.3,1.3-2.5,1.9-3.6
			C193.7,128.8,194.3,127.9,194.9,127.2z M206.5,126c-0.1,1.2-0.3,2.6-0.5,4c-0.2,1.5-0.4,3-0.7,4.6c-0.2,1.6-0.4,3.2-0.6,4.8
			c-0.2,1.6-0.3,3.1-0.4,4.6c0,0.3-0.1,0.6-0.2,0.7c-0.1,0.1-0.3,0.2-0.4,0.2c-0.1,0-0.3-0.1-0.4-0.2c-0.1-0.1-0.2-0.3-0.2-0.6
			c-0.1-1.4,0-2.8,0.1-4.4s0.3-3.1,0.5-4.8c-1.2,0.3-2.4,0.8-3.6,1.3s-2.1,1-2.8,1.4c-0.3,0.2-0.6,0.3-0.8,0.3
			c-0.2,0-0.4-0.1-0.5-0.2c-0.1-0.1-0.1-0.3-0.1-0.6c0.1-0.2,0.3-0.4,0.6-0.7c0.8-0.6,1.8-1.1,3.1-1.7c1.3-0.5,2.7-1,4.2-1.2
			c0.2-1.2,0.3-2.4,0.4-3.7s0.2-2.5,0.3-3.7c0-0.2,0.2-0.4,0.4-0.6c0.2-0.1,0.4-0.2,0.6-0.2c0.2,0,0.4,0.1,0.6,0.2
			C206.5,125.6,206.6,125.8,206.5,126z M199.1,152.8c0.1-0.9,0.3-1.8,0.7-2.9c0.4-1.1,0.9-2,1.5-2.8c0.1-0.2,0.3-0.3,0.5-0.4
			c0.2-0.1,0.4-0.1,0.5,0s0.2,0.2,0.3,0.4c0,0.2,0,0.5-0.2,0.8c-0.4,0.7-0.7,1.5-1,2.3c-0.3,0.8-0.4,1.6-0.5,2.5
			c0,0.5,0.1,1,0.4,1.2s0.8,0.3,1.5,0c0.5-0.2,1-0.3,1.6-0.6c0.5-0.2,1.1-0.4,1.7-0.6c0.6-0.2,1.2-0.4,2-0.5
			c0.7-0.1,1.5-0.2,2.4-0.3c0.4,0,0.6,0.2,0.6,0.5c0,0.1-0.1,0.2-0.2,0.4c-0.1,0.1-0.2,0.2-0.4,0.2c-0.8,0.1-1.5,0.3-2.1,0.4
			c-0.6,0.2-1.2,0.3-1.7,0.5c-0.5,0.2-1,0.4-1.5,0.6s-1,0.4-1.6,0.6c-0.5,0.2-1.1,0.4-1.7,0.5c-0.6,0.1-1.1,0.1-1.5-0.1
			c-0.4-0.1-0.8-0.4-1.1-0.9C199.1,154.3,199,153.6,199.1,152.8z M208.5,144.8c-0.1-1.4-0.2-3-0.1-4.8c0.1-1.8,0.2-3.8,0.4-5.8
			c0.2-2,0.4-4.2,0.7-6.3c0.3-2.2,0.5-4.3,0.8-6.4c0.1-0.3,0.2-0.5,0.4-0.7s0.3-0.2,0.5-0.2c0.3,0,0.6,0,0.8,0.2
			c0.2,0.2,0.3,0.5,0.2,0.8c-0.7,4.3-1.3,8.4-1.7,12.4c-0.4,4-0.7,7.6-0.8,10.8c0,0.4-0.2,0.6-0.6,0.7S208.5,145.3,208.5,144.8z"/>
		<path class="st3" d="M226.8,133.3c-1.8,0.1-3.4,0.3-5,0.6c-0.8,1.2-1.5,2.4-2,3.4c-0.5,1.1-0.9,2.3-1.2,3.6
			c-0.1,0.4-0.1,0.7,0,0.9s0.2,0.4,0.4,0.5c0.2,0.1,0.4,0.2,0.6,0.2c0.2,0,0.4,0,0.6,0c0.5,0,1-0.1,1.6-0.2c0.6-0.1,1.2-0.3,1.8-0.5
			c0.6-0.2,1.2-0.4,1.8-0.6s1.1-0.4,1.5-0.6c0.4-0.2,0.7-0.1,0.8,0.1c0.1,0.3,0.1,0.5-0.2,0.7c-0.4,0.3-0.9,0.6-1.7,1
			c-0.7,0.3-1.5,0.6-2.2,0.8c-0.8,0.2-1.5,0.4-2.1,0.6c-0.7,0.1-1.2,0.2-1.5,0.2c-0.5,0-1,0-1.4-0.1c-0.4-0.1-0.8-0.2-1.1-0.5
			c-0.3-0.2-0.5-0.5-0.6-0.9c-0.1-0.4-0.1-0.9,0-1.6c0.2-1.3,0.6-2.6,1.2-3.7s1.3-2.1,1.9-3l-3,0.7c-0.6,0.2-1,0.1-1.1-0.3
			c-0.1-0.4,0.2-0.7,0.8-0.9c0.8-0.3,1.6-0.5,2.5-0.7c0.9-0.2,1.8-0.5,2.7-0.7c0.9-0.2,1.8-0.3,2.7-0.5c0.9-0.1,1.7-0.2,2.5-0.2
			c0.4,0,0.8,0.1,0.9,0.2s0.2,0.3,0.2,0.5c0,0.2-0.2,0.4-0.4,0.5S227.1,133.3,226.8,133.3z M226.8,128c-1,0.1-1.8,0.3-2.5,0.4
			s-1.4,0.3-2.1,0.5c-0.7,0.2-1.3,0.4-1.9,0.6s-1.3,0.4-2.1,0.6c-0.6,0.2-1,0.1-1.1-0.2c-0.1-0.2,0-0.4,0.1-0.6
			c0.2-0.2,0.4-0.3,0.6-0.5c1.3-0.6,2.8-1.1,4.5-1.5s3.3-0.7,4.9-0.9c0.4,0,0.7,0.2,0.7,0.5c0,0.3-0.1,0.5-0.3,0.6
			S227.1,127.9,226.8,128z M237.3,123.2c0-0.4,0.2-0.6,0.4-0.7c0.1,0,0.2,0,0.3,0c0.8,0,1.2,0.4,1.1,1.2c-0.5,4-1,8.5-1.5,13.5
			c-0.5,5-0.9,10.2-1.3,15.8c0,0.3-0.1,0.5-0.2,0.7s-0.3,0.2-0.4,0.2c-0.2,0-0.3-0.1-0.4-0.2s-0.2-0.3-0.2-0.5
			c0-1.2,0.1-2.6,0.1-4.1s0.1-3,0.2-4.7c0.1-1.6,0.2-3.3,0.3-5c0.1-1.7,0.3-3.4,0.4-5c-0.7,0.1-1.4,0.2-2.1,0.3s-1.3,0.3-1.9,0.5
			c-0.6,0.2-1.3,0.4-2,0.7c-0.7,0.3-1.4,0.6-2.2,1c-0.2,0.1-0.5,0.2-0.8,0.3c-0.3,0.1-0.6,0-0.9-0.2c-0.2-0.2-0.3-0.4-0.2-0.6
			c0.1-0.3,0.2-0.4,0.4-0.5c1.8-0.9,3.4-1.5,4.9-1.8c1.5-0.4,3.1-0.6,4.8-0.8c0.2-1.9,0.3-3.7,0.5-5.4
			C236.9,126,237.1,124.5,237.3,123.2z"/>
		<path class="st3" d="M243.5,145.3c-0.5-0.3-0.9-0.7-1.1-1.3c-0.2-0.6-0.3-1.2-0.2-1.9c0-0.7,0.1-1.4,0.3-2.1
			c0.2-0.7,0.4-1.3,0.6-1.8c0.4-1.2,1-2.5,1.6-3.7c0.6-1.3,1.4-2.4,2.2-3.4c-0.1-0.3,0-0.4,0-0.5c0.1-0.1,0.2-0.2,0.4-0.2
			c0.2-0.1,0.4-0.1,0.6-0.1c1.3,0.2,2.2,0.6,2.8,1.2c0.5,0.7,0.8,1.6,0.8,2.7c0,1.1-0.2,2.3-0.5,3.5c0.7-0.4,1.4-0.7,2.2-0.9
			c0.8-0.3,1.5-0.5,2.3-0.6s1.5-0.3,2.3-0.4s1.4-0.1,1.9-0.1c0.2-0.7,0.3-1.4,0.5-2.1c0.1-0.7,0.3-1.4,0.5-2.1
			c0.1-0.4,0.2-0.6,0.4-0.7c0.2-0.1,0.4-0.1,0.6-0.1c0.3,0,0.5,0.1,0.7,0.2c0.2,0.2,0.3,0.4,0.2,0.8c-0.2,1.2-0.5,2.4-0.7,3.5
			s-0.5,2.2-0.7,3.4c-0.2,1.2-0.5,2.4-0.7,3.7c-0.2,1.3-0.4,2.8-0.5,4.5c0,0.2-0.1,0.3-0.2,0.4s-0.3,0.2-0.4,0.2
			c-0.2,0-0.3,0-0.4-0.1s-0.2-0.2-0.2-0.5c-0.1-1.5,0-3.1,0.1-4.8c0.1-1.6,0.4-3.3,0.6-4.9c-1.5,0.2-2.9,0.5-4.3,0.9
			c-1.4,0.5-3,1.1-4.6,1.8c-0.2,0.1-0.3,0.1-0.4,0.1c-0.2,0.3-0.3,0.5-0.5,0.8c-0.1,0.3-0.3,0.5-0.5,0.8c-0.4,0.6-0.8,1.2-1.3,1.8
			c-0.5,0.6-0.9,1.1-1.4,1.5c-0.5,0.4-1,0.7-1.5,0.8C244.5,145.7,244,145.6,243.5,145.3z M248.1,132.1c-0.6,0.7-1.2,1.7-1.7,2.8
			c-0.5,1.1-1.1,2.4-1.5,3.7c-0.2,0.5-0.4,1.1-0.5,1.7c-0.2,0.6-0.3,1.1-0.3,1.5s0,0.9,0,1.2c0.1,0.3,0.2,0.5,0.5,0.6
			c0.3,0.1,0.8-0.2,1.6-0.9c0.7-0.7,1.4-1.6,2-2.6c0.5-0.9,0.9-1.8,1.2-2.8c0.3-1,0.5-2,0.5-3.1c0-0.6-0.1-1.1-0.3-1.6
			C249.2,132.3,248.8,132.1,248.1,132.1z M265.2,154.3c0,0.2-0.1,0.4-0.2,0.5c-0.1,0.1-0.3,0.2-0.5,0.2c-0.2,0-0.3,0-0.5-0.1
			c-0.1-0.1-0.2-0.3-0.2-0.6c0-2.3,0.2-4.8,0.5-7.7c0.3-2.9,0.7-5.8,1.2-8.7c0.4-2.9,0.9-5.8,1.4-8.5c0.5-2.7,1-5.1,1.3-7.1
			c0.1-0.4,0.3-0.6,0.6-0.6c0.4-0.1,0.7-0.1,0.9,0c0.2,0.1,0.3,0.2,0.4,0.5c0,0.3,0,0.6-0.1,0.9c-0.2,1-0.4,2.2-0.6,3.5
			c-0.3,1.4-0.5,2.7-0.8,4.1c-0.4,1.7-0.7,3.5-1.1,5.5c-0.4,2-0.7,4-1,6s-0.6,4.1-0.9,6.2C265.5,150.5,265.3,152.4,265.2,154.3z"/>
		<path class="st3" d="M283,127.3c0.3-0.2,0.6-0.3,0.8-0.3s0.4,0.1,0.6,0.2c0.1,0.1,0.2,0.3,0.3,0.5c0,0.2,0,0.4-0.1,0.5
			c-1,1.5-1.9,2.8-2.5,4c-0.7,1.2-1.3,2.3-1.9,3.3c0.6,0.9,1.3,1.7,2,2.5c0.7,0.8,1.4,1.6,2.2,2.4c0.7,0.7,1.4,1.4,2.1,2
			c0.7,0.6,1.2,1.1,1.7,1.5c0.1,0.1,0.2,0.2,0.2,0.4c0,0.1,0,0.3-0.1,0.4c-0.1,0.1-0.2,0.2-0.3,0.2c-0.1,0-0.3,0-0.5,0
			c-0.4-0.2-0.9-0.5-1.6-1c-0.7-0.5-1.4-1.1-2.1-1.8c-0.8-0.7-1.5-1.4-2.3-2.2c-0.8-0.8-1.5-1.6-2.2-2.4l-0.2,0.4
			c-0.4,0.8-0.7,1.5-1.1,2.2c-0.3,0.7-0.6,1.5-1,2.4s-0.7,1.8-1.1,3c-0.4,1.1-0.9,2.5-1.5,4.1c-0.1,0.2-0.2,0.4-0.4,0.5
			c-0.2,0.1-0.3,0.1-0.5,0.1c-0.2,0-0.3-0.1-0.4-0.3c-0.1-0.2-0.1-0.4,0-0.7c0.7-2.7,1.4-5.1,2.1-7s1.5-3.7,2.2-5.2
			c0.8-1.6,1.5-2.9,2.1-4c0.6-1.1,1.1-2,1.5-2.7c0.4-0.7,0.8-1.3,1.1-1.7C282.4,127.8,282.7,127.5,283,127.3z M296.4,133.9
			c-1,0.2-2,0.4-2.9,0.6c-0.9,0.2-1.8,0.5-2.6,0.8c-0.8,0.3-1.6,0.6-2.2,0.9c-0.7,0.3-1.2,0.7-1.6,1.1c-0.4,0.4-0.9,0.5-1.3,0.2
			c-0.2-0.1-0.2-0.3-0.3-0.6c0-0.3,0-0.5,0.2-0.6c0.4-0.5,1-1,1.8-1.5c0.8-0.4,1.7-0.8,2.7-1.1c1-0.3,2.1-0.6,3.2-0.8
			s2.2-0.4,3.4-0.5c0.2-0.8,0.3-1.5,0.4-2.2c0.1-0.7,0.3-1.4,0.4-2.1s0.2-1.5,0.4-2.2c0.1-0.8,0.2-1.6,0.3-2.5c0-0.2,0-0.3,0.1-0.4
			c0.1-0.1,0.2-0.2,0.2-0.2c0.1,0,0.2,0,0.3,0c0.9,0,1.2,0.4,1.2,1.2c-0.2,2-0.5,3.9-0.9,5.9s-0.9,4-1.3,6.1c-0.5,2.5-1,5.1-1.6,7.7
			s-0.9,5.4-1.1,8.3c0,0.4-0.2,0.7-0.6,0.8c-0.2,0-0.3,0-0.4-0.1s-0.2-0.2-0.2-0.4c0-1.3,0-2.6,0.1-3.9c0.1-1.2,0.2-2.5,0.4-3.8
			c0.2-1.3,0.4-2.7,0.7-4.1c0.3-1.4,0.6-3,1-4.7L296.4,133.9z"/>
	</g>
	<g>
		<rect x="175" y="48" class="st7" width="14" height="12.4"/>
		<path class="st7" d="M179,49h-4c0-10.3,9.2-13,14-13l0,4C188,40,179,40.3,179,49z"/>
		<rect x="156" y="48" class="st7" width="14" height="12.4"/>
		<path class="st7" d="M160,49h-4c0-10.3,9.2-13,14-13l0,4C169,40,160,40.3,160,49z"/>
	</g>
	<g>
		
			<rect x="162" y="180" transform="matrix(-1 -1.224647e-16 1.224647e-16 -1 338.0117 372.4445)" class="st7" width="14" height="12.4"/>
		<path class="st7" d="M172,191.4h4c0,10.3-9.2,13-14,13l0-4C163,200.4,172,200.1,172,191.4z"/>
		
			<rect x="181" y="180" transform="matrix(-1 -1.224647e-16 1.224647e-16 -1 376.0117 372.4445)" class="st7" width="14" height="12.4"/>
		<path class="st7" d="M191,191.4h4c0,10.3-9.2,13-14,13l0-4C182,200.4,191,200.1,191,191.4z"/>
	</g>
	<g>
		
			<image style="overflow:visible;" width="355" height="270" xlink:href="A40343FE.jpg"  transform="matrix(0.9999 0 0 0.9999 -8014 -8057)">
		</image>
	</g>
</g>
<g id="_x32_" class="st0">
	<path class="st9" d="M276.4,229H78.6C35.2,229,0,193.8,0,150.4V78.6C0,35.2,35.2,0,78.6,0h197.9C319.8,0,355,35.2,355,78.6v71.9
		C355,193.8,319.8,229,276.4,229z"/>
	<path class="st9" d="M226.9,222.5l-44.4,44.4c-2.8,2.8-7.3,2.8-10.1,0l-44.4-44.4c-2.8-2.8-2.8-7.3,0-10.1l44.4-44.4
		c2.8-2.8,7.3-2.8,10.1,0l44.4,44.4C229.7,215.2,229.7,219.8,226.9,222.5z"/>
	<g class="st2">
		<path class="st3" d="M53.5,95.5c-1.3,0.1-2.7,0.4-4.1,0.8c-0.4,1.2-0.8,2.6-1.1,4.1c-0.3,1.5-0.5,2.9-0.7,4.4c0,0.1,0,0.3-0.1,0.4
			c-0.1,0.1-0.2,0.2-0.3,0.2c-0.1,0-0.2,0-0.3-0.1c-0.1-0.1-0.1-0.2-0.1-0.5c0-1.2,0-2.5,0.2-3.9c0.2-1.4,0.5-2.8,0.9-4.1
			c-1.7,0.5-3.5,1.1-5.4,1.8c-0.2,0.1-0.4,0.1-0.6,0.2c-0.2,0.1-0.5,0.1-0.6,0.1c-0.4,0-0.6-0.2-0.6-0.6c0-0.2,0-0.3,0.2-0.4
			s0.3-0.2,0.6-0.3c0.8-0.3,1.7-0.6,2.7-0.9c1-0.3,2.1-0.6,3.1-0.9c1.1-0.3,2.2-0.5,3.3-0.7c1.1-0.2,2.2-0.3,3.2-0.4
			c0.2,0,0.4,0,0.6,0.1c0.1,0.1,0.2,0.2,0.1,0.4c0,0.2-0.1,0.3-0.2,0.3C54,95.4,53.8,95.5,53.5,95.5z M42.7,95.7
			c-0.1,0.1-0.3,0.2-0.4,0.3c-0.2,0-0.3,0-0.4,0c-0.1,0-0.2-0.1-0.2-0.3c0-0.2,0.1-0.3,0.2-0.6c0.4-0.6,0.8-1.1,1.2-1.5
			c0.4-0.5,0.9-0.9,1.4-1.4c0.5-0.5,1.1-1,1.7-1.6c0.6-0.6,1.3-1.2,2-1.9c0.4-0.4,0.6-0.7,0.5-1c-0.1-0.3-0.4-0.3-1-0.2
			c-0.8,0.2-1.6,0.5-2.3,0.8c-0.8,0.3-1.5,0.8-2.1,1.3c-0.2,0.2-0.4,0.3-0.5,0.3s-0.3,0-0.4-0.1c-0.1-0.1-0.1-0.2-0.1-0.4
			c0-0.2,0.1-0.3,0.2-0.5c0.4-0.5,1.1-1,2-1.5c0.9-0.5,2-0.8,3.2-1c0.6-0.1,1.2-0.1,1.6,0.1c0.4,0.1,0.7,0.3,0.8,0.6
			c0.2,0.3,0.2,0.6,0.1,1s-0.4,0.8-0.8,1.2l-0.6,0.6c1.2,0.3,2.4,0.8,3.5,1.7c0.2,0.2,0.3,0.4,0.2,0.6c-0.1,0.2-0.3,0.3-0.6,0.2
			c-0.7-0.3-1.4-0.6-2.1-0.8s-1.4-0.4-2.1-0.6c-0.8,0.7-1.6,1.5-2.6,2.4C44.3,94,43.5,94.8,42.7,95.7z M50.3,83
			c0.3,0,0.5,0.1,0.5,0.4c0,0.3-0.2,0.4-0.5,0.5c-0.5,0-1,0.1-1.5,0.3c-0.6,0.1-1.1,0.3-1.7,0.5c-0.6,0.2-1.1,0.4-1.6,0.6
			c-0.5,0.2-0.9,0.5-1.2,0.7C44,86,43.8,86.1,43.7,86c-0.1-0.1-0.2-0.2-0.3-0.4c0-0.1,0-0.3,0.1-0.4c0.1-0.2,0.2-0.3,0.3-0.4
			c0.3-0.2,0.7-0.4,1.2-0.6c0.5-0.2,1-0.4,1.6-0.6c0.6-0.2,1.2-0.3,1.8-0.4C49.1,83.1,49.7,83,50.3,83z M55.4,105.9
			c-0.1-2.3-0.1-4.4,0.1-6.5c0.2-2.1,0.4-4.1,0.6-6c0.2-1.9,0.5-3.7,0.6-5.4c0.2-1.7,0.3-3.4,0.2-4.9c0-0.2,0.1-0.4,0.2-0.5
			c0.1-0.1,0.3-0.2,0.5-0.3c0.2,0,0.4,0,0.5,0.1s0.2,0.3,0.2,0.6c0,1.5-0.1,3.1-0.3,4.8c-0.2,1.7-0.4,3.4-0.7,5.3
			c-0.3,1.9-0.5,3.9-0.7,6s-0.4,4.4-0.4,6.8c0,0.1,0,0.2-0.1,0.3c-0.1,0.1-0.2,0.1-0.3,0.1s-0.2,0-0.3-0.1
			C55.5,106.1,55.4,106,55.4,105.9z"/>
		<path class="st3" d="M61.6,96.1c-0.3-0.1-0.4-0.3-0.6-0.6c-0.1-0.3-0.2-0.7-0.2-1.1c0-0.4,0-0.9,0.1-1.3c0.1-0.5,0.2-0.9,0.3-1.3
			c0.2-0.8,0.4-1.5,0.7-2.1c0.3-0.7,0.6-1.3,1.1-2c0-0.3,0-0.4,0.2-0.5c0.2-0.1,0.4-0.1,0.6-0.1c0.6,0.2,1.1,0.5,1.5,0.9
			c0.4,0.4,0.6,1,0.6,1.6c0,0.7,0,1.3-0.1,1.7c-0.1,0.5-0.3,1-0.5,1.7c-0.1,0.4-0.3,0.8-0.6,1.2c-0.3,0.4-0.6,0.8-0.9,1.1
			c-0.3,0.3-0.7,0.5-1,0.7C62.3,96.2,62,96.2,61.6,96.1z M63.9,88.4c-0.4,0.6-0.7,1.1-0.9,1.7c-0.2,0.6-0.5,1.3-0.6,2
			c0,0.2-0.1,0.4-0.1,0.7c0,0.3-0.1,0.6-0.1,0.8c0,0.3,0,0.5,0,0.7c0,0.2,0.1,0.4,0.1,0.4c0.1,0.1,0.3,0.1,0.4-0.1
			c0.2-0.1,0.3-0.3,0.5-0.5c0.2-0.2,0.3-0.5,0.5-0.8c0.2-0.3,0.3-0.6,0.4-0.8c0.2-0.6,0.4-1.2,0.5-1.7c0.1-0.5,0.2-1,0.1-1.4
			c0-0.4-0.1-0.6-0.2-0.8C64.4,88.6,64.2,88.5,63.9,88.4z M74.3,90.4c0.2,0,0.3,0,0.4,0.1c0.1,0.1,0.1,0.2,0.1,0.3
			c0,0.1-0.1,0.2-0.2,0.3c-0.1,0.1-0.2,0.2-0.4,0.2c-0.6,0-1.2,0.1-1.7,0.2c-0.5,0.1-1,0.2-1.4,0.3s-0.8,0.2-1.2,0.4
			c-0.4,0.1-0.8,0.3-1.2,0.4c-0.2,0-0.4,0.1-0.6,0.1c-0.2,0-0.4-0.1-0.4-0.3c-0.1-0.3,0-0.6,0.4-0.8c0.6-0.2,1.1-0.4,1.6-0.6
			c0.5-0.1,1-0.3,1.5-0.4c0.5-0.1,1-0.2,1.5-0.2S73.8,90.5,74.3,90.4z M70.3,108.1c0,0.1,0,0.3-0.1,0.3s-0.2,0.1-0.3,0.1
			c-0.1,0-0.2,0-0.3-0.1c-0.1-0.1-0.2-0.2-0.2-0.3c-0.1-0.6-0.2-1.3-0.2-2.2c0-0.9,0-1.8,0-2.7c0-0.9,0.1-1.9,0.2-2.8
			c0.1-0.9,0.2-1.7,0.2-2.3c0-0.3,0.2-0.6,0.4-0.6c0.1,0,0.2-0.1,0.3-0.1c0.5,0,0.7,0.2,0.7,0.5c-0.1,0.5-0.2,1.1-0.2,1.8
			c-0.1,0.7-0.2,1.4-0.2,2.1c0.7-0.3,1.6-0.6,2.5-0.8c0.9-0.2,1.8-0.2,2.6-0.1c0-0.6,0.1-1.1,0.1-1.6s0.1-1,0.1-1.4
			c0-0.2,0-0.3,0.1-0.4c0.1-0.1,0.2-0.2,0.3-0.2c0.1,0,0.3-0.1,0.4-0.1c0.2,0,0.4,0.1,0.4,0.2c0,0.1,0.1,0.2,0.1,0.4
			c0,0.6,0,1.3-0.1,2c-0.1,0.8-0.2,1.5-0.3,2.3c-0.1,0.8-0.3,1.5-0.4,2.2c-0.1,0.7-0.3,1.3-0.4,1.7l1.4-0.4c0.2-0.1,0.4,0,0.5,0.2
			c0.1,0.2,0,0.3-0.2,0.5c-0.3,0.2-0.7,0.4-1.2,0.6c-0.5,0.2-1,0.3-1.5,0.4c-0.5,0.1-1,0.1-1.4,0.2c-0.4,0-0.8,0.1-1,0.1
			c-0.4,0-0.6-0.2-0.6-0.5c0-0.3,0.2-0.4,0.5-0.5c0.3,0,0.7-0.1,1.1-0.1s0.9-0.1,1.4-0.2c0.1-0.6,0.2-1.2,0.3-2
			c0.1-0.8,0.2-1.6,0.3-2.4c-1.1,0-2.1,0.2-3,0.5c-0.9,0.3-1.6,0.6-2.1,0.9c-0.1,1-0.1,1.9-0.2,2.7
			C70.2,106.9,70.2,107.6,70.3,108.1z M77.2,81.4c0-0.2,0.1-0.4,0.2-0.5c0.1-0.1,0.3-0.1,0.5-0.1c0.2,0,0.3,0.1,0.4,0.2
			s0.2,0.2,0.2,0.4c0,1.5-0.1,2.9-0.2,4.1c-0.1,1.2-0.2,2.4-0.4,3.5c-0.1,1.1-0.3,2.2-0.4,3.2c-0.1,1-0.2,2.1-0.3,3.3
			c0,0.1,0,0.2-0.1,0.3c-0.1,0.1-0.2,0.1-0.3,0.1c-0.1,0-0.2,0-0.3-0.1c-0.1,0-0.1-0.1-0.1-0.3c0-1,0-2.1,0.1-3.1
			c0.1-1,0.2-2.1,0.3-3.3c0.1-1.1,0.2-2.3,0.3-3.6C77.1,84.3,77.2,82.9,77.2,81.4z"/>
		<path class="st3" d="M81.7,102.3c-0.3,0.1-0.5,0.1-0.8,0.1c-0.3,0-0.5-0.1-0.6-0.3c-0.1-0.2-0.1-0.3-0.1-0.5
			c0-0.2,0.2-0.3,0.4-0.4c2.1-0.7,4.3-1.3,6.4-1.7s4.3-0.6,6.6-0.4c0.2,0,0.4,0.1,0.5,0.2c0.1,0.1,0.2,0.2,0.2,0.3
			c0,0.1-0.1,0.2-0.2,0.3c-0.1,0.1-0.3,0.1-0.5,0.1c-1.2,0-2.3,0-3.3,0.1c-1,0.1-2,0.2-2.9,0.4c-0.9,0.2-1.8,0.4-2.8,0.7
			C83.7,101.6,82.7,101.9,81.7,102.3z M85.8,94.7c-0.6,0.1-1.1,0.1-1.4-0.1c-0.3-0.2-0.5-0.6-0.6-1c-0.1-0.4-0.1-0.9-0.1-1.4
			c0.1-0.5,0.2-1,0.3-1.4c0.3-0.8,0.6-1.5,0.9-2.2c0.3-0.7,0.6-1.3,0.8-1.7c0.1-0.3,0.3-0.5,0.5-0.7c0.2-0.2,0.4-0.3,0.8-0.4
			c0.6-0.1,1.1,0,1.7,0.2c0.5,0.3,0.9,0.6,1.2,1.1c0.5,0.8,0.6,1.6,0.5,2.5c-0.2,0.9-0.5,1.7-1,2.5c-0.6,0.9-1.1,1.5-1.7,2
			C87.1,94.3,86.5,94.6,85.8,94.7z M88.4,91.2c0.4-0.6,0.6-1.2,0.6-1.8c0-0.6,0-1.2-0.1-1.6c-0.1-0.3-0.3-0.6-0.6-0.8
			c-0.3-0.2-0.6-0.3-1-0.3c-0.6,1.2-1,2.1-1.3,2.7c-0.3,0.6-0.5,1.1-0.6,1.4c-0.3,0.9-0.5,1.6-0.3,2c0.1,0.4,0.3,0.6,0.7,0.5
			c0.5-0.1,0.9-0.3,1.4-0.7C87.6,92.4,88,91.9,88.4,91.2z M99.6,84.7c-0.2,1.2-0.3,2.2-0.4,3.1c-0.1,0.9-0.2,1.8-0.3,2.5
			c-0.1,0.8-0.2,1.5-0.3,2.2c-0.1,0.7-0.2,1.5-0.4,2.3c-0.2,0.9-0.4,1.8-0.5,2.6c-0.1,0.8-0.3,1.7-0.4,2.5c-0.1,0.9-0.2,1.8-0.3,2.8
			c-0.1,1-0.2,2.1-0.3,3.3c0,0.2-0.1,0.4-0.2,0.6c-0.1,0.1-0.2,0.2-0.3,0.2c-0.1,0-0.2,0-0.3-0.1c-0.1-0.1-0.1-0.3-0.1-0.5
			c0-2,0.1-3.9,0.4-5.7c0.2-1.8,0.5-3.7,0.8-5.7c0.1-0.8,0.3-1.5,0.4-2.3c0.1-0.7,0.2-1.5,0.3-2.3c0.1-0.8,0.2-1.7,0.3-2.7
			c0.1-1,0.3-2.1,0.4-3.4c0-0.3,0.1-0.5,0.3-0.5c0.1-0.1,0.3-0.1,0.5-0.1C99.5,83.6,99.7,84,99.6,84.7z"/>
		<path class="st3" d="M120.3,89.4c0.3-0.6,0.4-1.1,0.3-1.4c0-0.3-0.4-0.5-1-0.4c-1.1,0-2.1,0.3-3,0.9c-0.9,0.5-1.7,1.2-2.4,2.2
			c-0.1,0.1-0.2,0.2-0.5,0.3c-0.2,0.1-0.4,0-0.5-0.1c-0.3-0.2-0.3-0.6-0.1-1c0.2-0.3,0.4-0.7,0.8-1.1c0.3-0.4,0.8-0.7,1.3-1.1
			c0.5-0.3,1.1-0.6,1.8-0.9c0.7-0.2,1.5-0.4,2.4-0.4c1.3-0.1,2.1,0.2,2.4,0.8c0.3,0.6,0.3,1.4-0.2,2.4c-0.4,0.9-0.9,1.8-1.5,2.7
			c-0.6,0.9-1.1,1.7-1.8,2.6c0.8,0.8,1.6,1.6,2.5,2.3c0.9,0.7,1.8,1.3,2.6,1.7c0.2,0.1,0.2,0.3,0.1,0.5c-0.1,0.2-0.3,0.3-0.5,0.3
			c-1.1-0.3-2.1-0.7-3-1.3c-0.9-0.6-1.8-1.3-2.8-2.2c-0.6,0.9-1.3,1.8-1.9,2.8c-0.6,0.9-1.2,1.9-1.6,3c-0.1,0.1-0.2,0.2-0.3,0.3
			c-0.1,0.1-0.3,0.1-0.4,0.1c-0.1,0-0.2-0.1-0.3-0.2c-0.1-0.1-0.1-0.3,0-0.5c0.4-1.3,1-2.5,1.6-3.5c0.6-1.1,1.3-2.1,2-3
			c0.7-0.9,1.4-1.9,2-2.8C119.2,91.3,119.8,90.4,120.3,89.4z M127.3,106.4c-0.1-0.7-0.2-1.4-0.2-2.1c0-0.7,0-1.4,0-2.1
			c0-1.4,0.1-2.9,0.2-4.3c0.1-1.4,0.3-2.8,0.5-4.2c0.1-1,0.2-1.9,0.3-2.7c0.1-0.8,0.2-1.7,0.2-2.5c0.1-0.8,0.1-1.7,0.2-2.6
			s0.1-1.9,0.1-3.1c0-0.1,0.1-0.2,0.2-0.3c0.1-0.1,0.3-0.2,0.5-0.2c0.2,0,0.4,0,0.6,0c0.2,0.1,0.3,0.2,0.3,0.4c0,1.1-0.1,2.1-0.1,3
			c-0.1,0.9-0.1,1.8-0.2,2.7c-0.1,0.9-0.2,1.8-0.3,2.7c-0.1,0.9-0.2,1.9-0.4,3c-0.2,1.6-0.4,3.4-0.6,5.5c-0.2,2.1-0.3,4.3-0.2,6.6
			c0,0.1,0,0.3-0.1,0.4c-0.1,0.1-0.2,0.2-0.3,0.2c-0.1,0-0.2,0-0.3-0.1C127.4,106.7,127.3,106.6,127.3,106.4z"/>
		<path class="st3" d="M132.8,98.2c2-0.6,4.1-1.1,6.3-1.4c2.2-0.3,4.4-0.4,6.7-0.1c0.1,0,0.2,0,0.2,0.1c0,0.1,0.1,0.2,0.1,0.3
			c0,0.1,0,0.2-0.1,0.3c-0.1,0.1-0.1,0.1-0.2,0.1c-2.4,0-4.6,0.1-6.6,0.4c-2,0.3-3.8,0.8-5.5,1.3c-0.3,0.1-0.6,0.2-0.9,0.3
			c-0.3,0.1-0.5,0-0.7-0.3c-0.2-0.2-0.2-0.4,0-0.6C132.3,98.4,132.6,98.3,132.8,98.2z M141.2,101.2c-0.6,0-1.3,0.1-2.1,0.2
			c-0.7,0.1-1.4,0.4-2.1,0.8c-0.3,1-0.5,2.1-0.7,3.2c-0.1,1.1-0.2,2-0.3,2.7c0,0.2-0.1,0.3-0.2,0.4s-0.2,0.1-0.4,0.1
			c-0.1,0-0.3,0-0.4-0.1c-0.1-0.1-0.2-0.2-0.2-0.3c0-1.1,0.1-2.4,0.3-3.7c0.2-1.3,0.5-2.6,0.9-3.7c0-0.1,0.1-0.2,0.3-0.2
			c0.1,0,0.3,0,0.4,0c0.1,0,0.3,0.1,0.4,0.1c0.1,0.1,0.2,0.1,0.2,0.2c0.7-0.3,1.3-0.4,2-0.6c0.7-0.1,1.3-0.1,1.9-0.1
			c0.5,0,0.8,0.1,1.1,0.3c0.3,0.2,0.5,0.4,0.6,0.7c0.1,0.3,0.2,0.6,0.1,0.9c0,0.3-0.2,0.6-0.4,1c-0.2,0.4-0.4,0.7-0.7,1.1
			c-0.3,0.4-0.5,0.8-0.8,1.1c-0.2,0.4-0.5,0.7-0.6,1c-0.2,0.3-0.3,0.6-0.4,0.8c-0.1,0.2,0,0.4,0.1,0.4c0.1,0,0.3,0,0.6-0.1
			c0.6-0.2,1.1-0.5,1.7-0.6c0.6-0.2,1.2-0.3,1.8-0.3c0.3,0,0.5,0.1,0.5,0.3s-0.1,0.4-0.4,0.4c-0.6,0.1-1.1,0.3-1.7,0.5
			c-0.6,0.2-1.1,0.5-1.7,0.7c-0.3,0.1-0.7,0.3-1.1,0.3c-0.4,0.1-0.7,0-1-0.1c-0.2-0.1-0.2-0.4-0.2-0.7c0-0.3,0.1-0.6,0.2-1
			c0.1-0.3,0.3-0.6,0.5-1c0.2-0.4,0.4-0.8,0.6-1.1c0.2-0.4,0.4-0.7,0.6-1.1c0.2-0.3,0.4-0.6,0.5-0.8c0.1-0.1,0.2-0.3,0.3-0.5
			c0.1-0.2,0.1-0.3,0.1-0.5c0-0.2,0-0.3-0.1-0.4C141.6,101.3,141.4,101.2,141.2,101.2z M137.6,94.6c-0.4,0-0.8,0-1-0.1
			c-0.3-0.1-0.4-0.3-0.5-0.5c-0.1-0.2-0.1-0.4,0-0.7c0.1-0.3,0.3-0.5,0.6-0.8c0.6-0.6,1.3-1.2,2-1.8c0.7-0.6,1.3-1.2,1.9-1.8
			c0.1-0.1,0.1-0.2,0.2-0.3c0.1-0.1,0.1-0.2,0.1-0.3s0-0.1-0.1-0.2c-0.1,0-0.2-0.1-0.4,0c-0.4,0-1,0.2-1.6,0.3
			c-0.6,0.2-1.3,0.4-2,0.8c-0.1,0.1-0.3,0.1-0.4,0.1c-0.1,0-0.2-0.1-0.3-0.2c0-0.1-0.1-0.2,0-0.4s0.1-0.3,0.3-0.4l1.2-0.9
			c0.4-0.3,0.8-0.7,1.2-1c0.4-0.4,0.8-0.7,1.1-1.1c0.4-0.4,0.7-0.7,1-1.1c0.3-0.3,0.5-0.6,0.7-0.9c0.3-0.4,0.4-0.7,0.2-0.9
			c-0.2-0.2-0.5-0.2-0.9-0.1c-1,0.2-1.9,0.6-2.7,0.9c-0.8,0.4-1.6,0.8-2.3,1.3c-0.2,0.1-0.4,0.1-0.6,0c-0.2-0.1-0.3-0.4-0.2-0.7
			c0-0.2,0.2-0.4,0.7-0.6c0.4-0.3,0.9-0.5,1.5-0.8c0.6-0.3,1.3-0.5,2-0.7c0.7-0.2,1.4-0.4,2-0.5c0.6-0.1,1,0,1.4,0.1
			s0.6,0.3,0.7,0.5s0.1,0.5,0.1,0.8c-0.1,0.3-0.2,0.6-0.4,0.9c-0.2,0.3-0.5,0.6-0.8,1c-0.3,0.4-0.7,0.7-1.1,1.1
			c-0.4,0.4-0.8,0.7-1.2,1c-0.4,0.3-0.7,0.6-1,0.9c0.4-0.2,0.9-0.3,1.4-0.4c0.5,0,0.9-0.1,1.2,0c0.3,0,0.5,0.1,0.6,0.2
			c0.1,0.1,0.2,0.3,0.2,0.5c0,0.2,0,0.4-0.1,0.6c-0.1,0.2-0.2,0.4-0.4,0.6c-0.6,0.7-1.2,1.3-1.9,1.9c-0.7,0.6-1.4,1.2-2,1.7
			c-0.3,0.3-0.4,0.5-0.3,0.6c0.1,0.1,0.3,0.1,0.7,0.1c0.7-0.1,1.5-0.3,2.4-0.5c0.9-0.2,1.7-0.5,2.6-0.8c0.3-0.1,0.5-0.1,0.6,0.1
			s0,0.4-0.3,0.6c-0.3,0.2-0.7,0.4-1.3,0.6c-0.5,0.2-1.1,0.4-1.7,0.5c-0.6,0.2-1.1,0.3-1.7,0.4C138.3,94.5,137.9,94.6,137.6,94.6z"
			/>
		<path class="st3" d="M153.8,88c0-0.3,0-0.7-0.3-1c-0.2-0.4-0.7-0.5-1.3-0.5c-0.4,0-0.7,0.1-1,0.2c-0.3,0.1-0.6,0.3-0.9,0.5
			c-0.3,0.2-0.5,0.4-0.6,0.6c-0.2,0.2-0.3,0.4-0.4,0.6c0,0.1-0.1,0.2-0.3,0.3c-0.1,0-0.2,0.1-0.3,0s-0.2-0.1-0.3-0.2
			c-0.1-0.1-0.1-0.2-0.1-0.4c0.1-0.7,0.5-1.3,1.2-1.8c0.7-0.5,1.6-0.8,2.7-0.8c1,0,1.7,0.2,2.2,0.7c0.5,0.5,0.7,1.1,0.6,1.8
			c0,0.9-0.3,1.8-0.7,2.6c-0.4,0.8-0.9,1.6-1.5,2.4s-1.1,1.6-1.6,2.3s-0.9,1.5-1.1,2.3c0,0.1-0.1,0.3-0.2,0.3
			c-0.1,0.1-0.2,0.1-0.3,0.1c-0.1,0-0.2-0.1-0.3-0.2c-0.1-0.1-0.1-0.2-0.1-0.3c0.1-0.8,0.4-1.5,0.8-2.3c0.4-0.7,0.9-1.5,1.4-2.3
			c0.5-0.8,1-1.6,1.4-2.4C153.4,89.8,153.7,88.9,153.8,88z M155.7,107c-0.3,0.2-0.4,0.4-0.4,0.5c0,0.1,0.1,0.2,0.4,0.1
			c0.5-0.1,1-0.1,1.5-0.2c0.5,0,0.9-0.1,1.4-0.1c0.5,0,0.9-0.1,1.4-0.1c0.5,0,1,0,1.7,0c0.7,0,1.3,0,1.9,0c0.6,0,1.2,0.1,1.9,0.2
			c0.2,0,0.4,0.1,0.4,0.2c0.1,0.1,0.1,0.2,0.1,0.3c0,0.1-0.1,0.2-0.2,0.3c-0.1,0.1-0.2,0.1-0.4,0.1c-0.6,0-1.2-0.1-1.8-0.1
			c-0.6,0-1.1,0-1.7,0s-1.1,0-1.6,0c-0.5,0-1,0.1-1.5,0.1c-0.5,0.1-1.1,0.1-1.7,0.3c-0.6,0.1-1.3,0.2-2.2,0.4c-0.4,0.1-0.8,0.1-1,0
			c-0.3-0.1-0.5-0.3-0.6-0.6c-0.1-0.3-0.1-0.6,0.1-0.8c0.2-0.2,0.3-0.4,0.5-0.5c0.5-0.4,1.2-1,2.1-1.7c0.9-0.7,1.9-1.4,3.1-2.2
			c0.3-0.2,0.4-0.3,0.4-0.5c0-0.1-0.2-0.2-0.5-0.2c-0.8,0-1.7,0.1-2.4,0.2c-0.3,0-0.6,0.1-0.8,0.2c-0.2,0.1-0.6,0.2-1,0.3
			c-0.2,0.1-0.4,0.2-0.7,0.2s-0.5,0.1-0.7,0.1c-0.3,0-0.5-0.1-0.5-0.3s0.1-0.4,0.4-0.6l2.7-1.7c0.7-0.5,1.3-0.9,1.8-1.3
			c0.5-0.4,0.9-0.7,1.3-0.9c0.4-0.3,0.7-0.5,0.9-0.6c0.3-0.2,0.5-0.4,0.7-0.5c0.4-0.3,0.6-0.6,0.6-0.9c0-0.3-0.3-0.4-1.1-0.4
			c-0.7,0-1.4,0.2-2.1,0.4c-0.7,0.2-1.5,0.6-2.3,1.3c-0.1,0.1-0.3,0-0.4-0.1c-0.1-0.1-0.2-0.3-0.2-0.4c0-0.3,0.2-0.6,0.5-0.8
			c0.3-0.2,0.7-0.4,1.1-0.6c0.5-0.2,1-0.4,1.6-0.5c0.6-0.1,1.3-0.2,2-0.2c0.8,0,1.4,0.2,1.8,0.4c0.4,0.3,0.6,0.5,0.6,0.9
			c0,0.5-0.4,1-1.2,1.6c-0.7,0.5-1.3,0.9-1.8,1.3c-0.5,0.4-1,0.7-1.4,1c-0.4,0.3-0.8,0.5-1.1,0.7c-0.3,0.2-0.7,0.4-1,0.6
			c0.5-0.1,1-0.2,1.6-0.2s1.1,0,1.6,0.1c0.8,0.1,1.3,0.3,1.4,0.6c0.1,0.3,0,0.7-0.4,1c-0.8,0.6-1.6,1.2-2.4,1.7
			C157.4,105.7,156.5,106.3,155.7,107z M162.7,80.2c0-0.1,0.1-0.3,0.2-0.4c0.2-0.1,0.3-0.1,0.5-0.2c0.2,0,0.3,0,0.5,0.1
			c0.1,0.1,0.2,0.3,0.2,0.5c0,0.7-0.1,1.5-0.3,2.3c-0.1,0.8-0.3,1.7-0.4,2.6c-0.2,0.9-0.3,1.7-0.5,2.6c-0.2,0.9-0.4,1.7-0.5,2.5
			c-0.1,0.6-0.3,1.2-0.4,1.8c-0.1,0.6-0.2,1.1-0.3,1.6c0,0.1-0.1,0.3-0.2,0.4c-0.1,0.1-0.2,0.1-0.4,0.1s-0.2,0-0.3-0.1
			c-0.1-0.1-0.1-0.3-0.1-0.5c0.1-0.8,0.2-1.6,0.4-2.4c0.1-0.8,0.3-1.6,0.5-2.4c0.2-1.2,0.4-2.4,0.7-3.7
			C162.3,83.6,162.5,82,162.7,80.2z"/>
		<path class="st3" d="M166.7,93.6c-0.2-0.1-0.3-0.3-0.2-0.5c0-0.2,0.3-0.5,0.8-0.7c0.9-0.4,2-0.9,3.2-1.3c1.3-0.4,2.6-0.8,3.9-1.1
			c1.4-0.3,2.7-0.6,4.1-0.8c1.4-0.2,2.7-0.3,3.8-0.3c0.5,0,0.7,0.1,0.7,0.4s-0.2,0.4-0.6,0.4c-1.2,0.1-2.5,0.3-3.7,0.5
			c-1.3,0.2-2.5,0.5-3.7,0.8c-1.2,0.3-2.4,0.7-3.5,1c-1.1,0.4-2.1,0.8-3,1.2c-0.4,0.2-0.7,0.3-1,0.4C167.2,93.8,167,93.7,166.7,93.6
			z M173.7,108.9c-0.3,0-0.6,0.1-1,0.1c-0.4,0-0.8,0-1.2-0.1c-0.4-0.1-0.7-0.3-0.9-0.5s-0.3-0.6-0.3-1c0-0.3,0.2-0.6,0.4-0.9
			c0.2-0.3,0.5-0.6,0.8-0.8c0.8-0.6,1.5-1.1,2.1-1.5c0.5-0.3,1-0.7,1.2-0.9c0.2-0.2,0.5-0.4,0.8-0.7s0.6-0.6,0.8-0.8
			c0.2-0.3,0.3-0.5,0.3-0.7c0-0.2-0.2-0.3-0.6-0.3c-0.8,0-1.6,0.1-2.3,0.3c-0.7,0.2-1.5,0.5-2.5,0.9c-0.2,0.1-0.4,0.1-0.5,0
			c-0.1,0-0.3-0.1-0.3-0.2c-0.1-0.1-0.1-0.2-0.1-0.4c0-0.1,0.1-0.2,0.2-0.3c0.2-0.1,0.5-0.3,0.8-0.5c0.3-0.2,0.7-0.4,1.3-0.8
			c0.7-0.4,1.3-0.8,2-1.3c0.7-0.5,1.2-0.9,1.7-1.4c0.8-0.9,0.6-1.4-0.4-1.4c-0.9,0-1.9,0.2-2.9,0.6c-1,0.4-2,0.9-3,1.5
			c-0.3,0.2-0.5,0.3-0.8,0.4c-0.3,0.1-0.5,0.1-0.6-0.1c-0.2-0.3-0.2-0.6,0.1-0.9c0.2-0.3,0.7-0.6,1.4-0.9c1-0.5,2.1-0.9,3.1-1.2
			c1-0.3,2.1-0.5,3.3-0.5c0.6,0,1.1,0.1,1.5,0.4c0.4,0.3,0.5,0.8,0.4,1.5c0,0.3-0.2,0.6-0.5,0.9c-0.3,0.3-0.6,0.6-1,0.9
			c-0.4,0.3-0.8,0.6-1.2,0.9c-0.4,0.3-0.8,0.5-1.2,0.8c0.4-0.1,0.8-0.2,1.3-0.2c0.4,0,0.8,0,1.2,0c0.5,0,1,0.1,1.3,0.2
			s0.5,0.4,0.5,0.7c0,0.5-0.2,0.9-0.5,1.2c-0.3,0.3-0.7,0.7-1.1,1.1c-0.6,0.6-1.3,1.1-1.9,1.5c-0.7,0.5-1.3,0.9-1.8,1.3
			c-0.6,0.4-0.9,0.7-1,0.9c-0.1,0.2-0.2,0.4-0.1,0.6c0,0.1,0.2,0.3,0.3,0.3c0.2,0.1,0.6,0.1,1.2,0c1.6-0.2,3.1-0.5,4.6-0.8
			c1.5-0.4,3-0.7,4.4-1.2c0.4-0.1,0.6-0.1,0.8,0.1c0.1,0.1,0.1,0.2,0,0.3s-0.2,0.2-0.6,0.4c-0.6,0.3-1.3,0.5-2.1,0.8
			c-0.7,0.2-1.5,0.5-2.3,0.7c-0.8,0.2-1.6,0.4-2.5,0.6C175.3,108.6,174.5,108.8,173.7,108.9z M176.9,85c-0.2,0.3-0.5,0.6-0.9,1
			c-0.4,0.4-0.8,0.7-1.2,0.9c-0.4,0.3-0.9,0.4-1.3,0.5c-0.5,0.1-0.9,0-1.3-0.2c-0.3-0.2-0.5-0.4-0.6-0.8c-0.1-0.3-0.1-0.7,0-1.2
			c0.1-0.4,0.2-0.9,0.4-1.4c0.2-0.5,0.4-1,0.7-1.4c0.3-0.6,0.8-1.2,1.3-1.7s1.1-0.8,1.6-0.8c0.7,0,1.2,0.1,1.6,0.4
			c0.4,0.3,0.6,0.8,0.6,1.5c0,0.5-0.1,1-0.3,1.6C177.5,84.1,177.2,84.6,176.9,85z M176.2,81.1c-0.4,0-0.8,0.3-1.1,0.6
			c-0.4,0.4-0.7,0.8-1,1.4c-0.1,0.2-0.3,0.5-0.4,0.8s-0.3,0.6-0.4,0.9c-0.1,0.3-0.2,0.6-0.2,0.8c0,0.2,0,0.4,0.1,0.6
			c0.1,0.2,0.3,0.3,0.5,0.2c0.2-0.1,0.5-0.2,0.8-0.4c0.3-0.2,0.5-0.4,0.8-0.7s0.5-0.5,0.6-0.8c0.3-0.4,0.5-0.8,0.7-1.2
			c0.2-0.4,0.3-0.8,0.3-1.2c0-0.3,0-0.5-0.1-0.6C176.7,81.1,176.5,81,176.2,81.1z"/>
		<path class="st3" d="M196,98.9c0.7-0.7,1.5-1.5,2.2-2.4c0.8-0.9,1.5-1.7,2.2-2.6c0.7-0.9,1.4-1.8,2-2.7s1.1-1.7,1.5-2.4
			c0.2-0.3,0.3-0.6,0.2-0.8c0-0.2-0.4-0.2-1-0.1c-1,0.2-1.7,0.6-2.3,1c-0.6,0.5-1.1,1-1.6,1.7c-0.1,0.1-0.2,0.2-0.3,0.2
			s-0.2,0-0.3-0.1c-0.1-0.1-0.2-0.2-0.2-0.3c0-0.1,0-0.3,0-0.4c0.3-0.6,0.8-1.1,1.6-1.7c0.8-0.6,1.8-1,3-1.3
			c0.5-0.1,0.9-0.1,1.3-0.1c0.4,0,0.7,0.1,0.9,0.3s0.3,0.4,0.4,0.8c0,0.3-0.1,0.7-0.4,1.2c-0.3,0.5-0.6,1-0.9,1.5
			c-0.3,0.5-0.7,1.1-1.1,1.6c0.5,0.6,0.9,1.1,1.5,1.7c0.5,0.6,1,1,1.5,1.4c0.1,0.1,0.2,0.3,0.1,0.5c-0.1,0.2-0.3,0.2-0.5,0.1
			c-0.6-0.2-1.1-0.6-1.7-1.2c-0.6-0.6-1.1-1.1-1.5-1.5c-0.8,1.1-1.7,2.2-2.7,3.3c-1,1.1-2,2.1-3.1,3c-0.1,0.1-0.2,0.1-0.4,0.1
			c-0.1,0-0.2-0.1-0.3-0.2c-0.1-0.1-0.1-0.2-0.1-0.3S195.9,99.1,196,98.9z M197.8,85.4c0.2-0.2,0.6-0.4,1.2-0.7
			c0.5-0.3,1.1-0.5,1.8-0.7s1.3-0.4,2-0.6c0.7-0.2,1.3-0.3,1.8-0.3c0.4,0,0.6,0.1,0.6,0.3c0,0.2-0.1,0.4-0.5,0.5
			c-0.4,0.1-0.9,0.2-1.5,0.4c-0.6,0.2-1.1,0.4-1.7,0.6c-0.6,0.2-1.1,0.5-1.7,0.8c-0.5,0.3-1,0.5-1.3,0.8c-0.2,0.2-0.4,0.2-0.5,0.2
			c-0.1,0-0.3-0.1-0.5-0.3c-0.1-0.1-0.2-0.3-0.1-0.4C197.4,85.7,197.6,85.6,197.8,85.4z M211.4,99.3c-0.3,0.6-0.7,1.3-1.2,2.1
			c-0.5,0.8-1.1,1.7-1.8,2.6c-0.7,0.9-1.5,1.8-2.4,2.7c-0.9,0.9-1.8,1.7-2.8,2.4c-0.1,0.1-0.2,0.1-0.3,0.1c-0.1,0-0.2-0.1-0.3-0.2
			c-0.1-0.1-0.1-0.2-0.1-0.3c0-0.1,0-0.2,0.1-0.3c1.9-1.7,3.4-3.3,4.7-4.9c1.2-1.5,2.2-3,3-4.6c0.2-0.5,0.2-0.8,0.1-0.9
			c-0.2-0.1-0.5-0.1-1,0c-0.2,0.1-0.5,0.2-0.9,0.3s-0.7,0.3-1.1,0.5s-0.7,0.5-1.1,0.7c-0.3,0.3-0.6,0.6-0.8,0.9
			c-0.1,0.2-0.3,0.3-0.5,0.3c-0.2,0.1-0.4,0-0.6-0.1c-0.1-0.1-0.2-0.2-0.3-0.4c0-0.2,0-0.4,0.1-0.5c0.2-0.3,0.5-0.6,0.9-0.9
			s0.8-0.6,1.2-0.8s0.9-0.5,1.3-0.6s0.9-0.3,1.3-0.4c0.5-0.1,1-0.2,1.4-0.1c0.4,0,0.7,0.1,1,0.3c0.2,0.2,0.4,0.4,0.4,0.8
			C211.8,98.3,211.7,98.7,211.4,99.3z M213.4,79.6c-0.4,1.8-0.7,3.5-1,5.2c-0.3,1.6-0.6,3.3-0.8,5.1c0.8-0.5,1.7-0.9,2.7-1.2
			c1-0.3,1.9-0.5,3-0.6c0.3,0,0.5,0.1,0.5,0.3c0,0.2-0.1,0.4-0.4,0.5c-1.3,0.3-2.4,0.7-3.2,1.1c-0.9,0.4-1.8,1-2.7,1.6
			c-0.1,0.6-0.1,1.2-0.2,1.8s-0.1,1.3-0.1,1.9c0,0.2-0.1,0.3-0.2,0.4c-0.1,0.1-0.2,0.1-0.3,0.1c-0.1,0-0.2,0-0.3-0.1
			c-0.1-0.1-0.1-0.2-0.1-0.3c0-1.2,0-2.4,0.1-3.7c0.1-1.3,0.2-2.7,0.4-4c0.2-1.4,0.4-2.7,0.6-4.1c0.2-1.4,0.5-2.7,0.7-4
			c0-0.2,0.1-0.4,0.3-0.4c0.2-0.1,0.3-0.1,0.5-0.1c0.2,0,0.4,0.1,0.5,0.2C213.4,79.3,213.5,79.4,213.4,79.6z M210.4,103
			c0-0.2,0-0.4,0.1-0.5c0.1-0.1,0.2-0.2,0.3-0.3c0.1,0,0.3,0,0.4,0c0.1,0.1,0.2,0.2,0.3,0.4c0.3,1,0.5,2,0.8,2.8s0.6,1.7,1,2.5
			c0.1,0.3,0.1,0.5-0.2,0.6c-0.2,0.1-0.4,0.1-0.6-0.2c-0.4-0.6-0.8-1.4-1.2-2.4C210.8,104.8,210.5,103.9,210.4,103z"/>
		<path class="st3" d="M219.4,104.4c0.2-0.2,0.6-0.4,1.2-0.6c0.6-0.2,1.2-0.4,1.9-0.6c0.7-0.2,1.4-0.4,2.1-0.5s1.3-0.3,1.7-0.3
			c1.2-0.2,2.3-0.3,3.4-0.3c1.1-0.1,2.3-0.1,3.4,0c0.2,0,0.3,0,0.4,0.1c0.1,0.1,0.1,0.2,0.1,0.3c0,0.1-0.1,0.2-0.1,0.3
			c-0.1,0.1-0.2,0.1-0.3,0.1c-1.2,0-2.3,0-3.4,0.1c-1.1,0.1-2.2,0.3-3.3,0.5c-0.9,0.2-1.9,0.4-2.9,0.8c-1,0.3-2,0.7-3,1.2
			c-0.2,0.1-0.4,0.1-0.6,0.1s-0.4-0.1-0.6-0.2c-0.1-0.1-0.2-0.3-0.2-0.5C219.2,104.7,219.3,104.6,219.4,104.4z M229.8,86
			c0-0.5,0-0.8-0.1-1c-0.1-0.2-0.3-0.3-0.6-0.3c-0.1,0-0.4,0-0.6,0.1c-0.3,0.1-0.5,0.2-0.7,0.3c-0.6,0.5-1.3,0.9-1.8,1.4
			c-0.6,0.4-1.3,1-2.1,1.8c-0.4,0.3-0.8,0.4-1.2,0.4c-0.3,0-0.4-0.2-0.4-0.4s0.2-0.5,0.4-0.6c0.6-0.6,1.3-1.1,2.1-1.7
			c0.7-0.6,1.5-1.2,2.3-1.7c0.4-0.3,0.8-0.5,1.2-0.6c0.4-0.1,0.8-0.2,1.2-0.2c0.5,0,0.9,0.2,1.2,0.5c0.3,0.4,0.4,0.8,0.4,1.4
			c0,1.3-0.2,2.5-0.4,3.6c-0.3,1.1-0.5,2.1-0.9,3.1c-0.2,0.6-0.4,1.3-0.6,2s-0.4,1.4-0.6,2c0,0.2-0.1,0.4-0.3,0.5
			c-0.1,0.1-0.3,0.2-0.4,0.2c-0.1,0-0.2-0.1-0.3-0.2s0-0.3,0-0.5c0.1-0.9,0.3-1.7,0.6-2.5c0.3-0.8,0.5-1.7,0.7-2.6
			c0.1-0.4,0.2-0.8,0.3-1.2s0.2-0.8,0.3-1.2c0.1-0.4,0.1-0.8,0.2-1.2C229.7,87,229.7,86.5,229.8,86z M224.9,92.5
			c0.3,0,0.5,0.1,0.6,0.3c0.1,0.2,0.1,0.4,0,0.6c-0.3,0.6-0.5,1.4-0.6,2.2c-0.2,0.8-0.3,1.6-0.4,2.3c-0.1,0.8-0.2,1.5-0.3,2.1
			c-0.1,0.6-0.3,1.1-0.5,1.7c0,0.1-0.1,0.2-0.3,0.3c-0.1,0.1-0.2,0.1-0.3,0.1c-0.1,0-0.2-0.1-0.3-0.2c-0.1-0.1-0.1-0.2,0-0.4
			c0.1-0.3,0.1-0.7,0.2-1.3c0.1-0.6,0.2-1.4,0.3-2.4c0.1-1,0.2-1.8,0.3-2.4c0.1-0.6,0.3-1.3,0.5-1.8c0.1-0.2,0.2-0.4,0.3-0.6
			C224.6,92.6,224.8,92.5,224.9,92.5z"/>
		<path class="st3" d="M262.6,97.3c-0.7,0.6-1.4,1.3-2.1,2c-0.7,0.7-1.5,1.5-2.2,2.3c0.8,0.6,1.7,1.2,2.5,1.9
			c0.8,0.7,1.6,1.5,2.3,2.3c0.2,0.3,0.3,0.5,0.1,0.7c-0.2,0.2-0.4,0.1-0.6-0.1c-0.8-0.8-1.6-1.5-2.5-2.2c-0.9-0.7-1.8-1.3-2.6-1.8
			c-0.6,0.7-1.2,1.5-1.8,2.3c-0.6,0.8-1.1,1.6-1.7,2.5c-0.1,0.2-0.3,0.4-0.4,0.4c-0.1,0.1-0.2,0.1-0.3,0s-0.2-0.2-0.2-0.3
			c0-0.1,0-0.3,0.1-0.5c0.5-0.8,1-1.7,1.6-2.6c0.6-0.9,1.2-1.8,1.9-2.7c-0.6-0.3-1.1-0.6-1.7-0.9c-0.6-0.3-1.2-0.6-1.7-0.8
			c-0.9,1-1.8,2-2.6,3c-0.9,1.1-1.7,2.3-2.5,3.6c-0.1,0.2-0.3,0.4-0.4,0.5c-0.1,0.1-0.3,0.1-0.4,0c-0.1,0-0.2-0.1-0.2-0.3
			s0-0.3,0-0.5c0.4-0.8,0.9-1.8,1.6-2.8c0.7-1,1.5-2.1,2.4-3.1c0.9-1,1.8-2,2.7-2.9c0.9-0.9,1.8-1.7,2.6-2.3
			c0.1-0.1,0.2-0.1,0.4-0.1c0.1,0,0.2,0.1,0.3,0.3c0.1,0.1,0.1,0.3,0.1,0.4c0,0.2,0,0.3-0.2,0.4L254,99c1.1,0.6,2.1,1.2,3.2,1.9
			c0.8-1,1.6-1.8,2.4-2.6c0.8-0.8,1.6-1.4,2.2-1.9c0.1,0,0.3,0,0.4,0c0.1,0,0.3,0.1,0.3,0.2c0.1,0.1,0.1,0.2,0.1,0.4
			S262.7,97.2,262.6,97.3z M248.7,94.5c-0.4-0.1-0.6-0.4-0.8-0.7c-0.2-0.3-0.2-0.7-0.3-1.1c0-0.4,0-0.8,0.1-1.2s0.2-0.7,0.3-1
			c0.1-0.4,0.3-0.8,0.5-1.2c0.2-0.4,0.4-0.8,0.6-1.2c0.2-0.4,0.5-0.7,0.7-1c0.3-0.3,0.5-0.6,0.8-0.8c-0.1-0.2-0.1-0.3,0.1-0.5
			c0.2-0.1,0.4-0.2,0.7-0.1c1,0.1,1.7,0.3,2.1,0.8c0.4,0.5,0.6,1,0.6,1.6c0,0.5-0.1,1.1-0.4,1.8c-0.3,0.7-0.6,1.2-1,1.7
			c-0.3,0.4-0.6,0.7-0.9,1.1c-0.3,0.4-0.6,0.7-1,1s-0.7,0.5-1,0.7C249.4,94.6,249.1,94.6,248.7,94.5L248.7,94.5z M251.6,86.9
			c-0.4,0.5-0.8,1-1.3,1.7s-0.8,1.3-1,1.9c-0.3,0.8-0.4,1.5-0.4,2c0,0.5,0.1,0.8,0.4,0.8c0.1,0,0.3,0,0.5-0.2s0.4-0.4,0.7-0.6
			c0.2-0.3,0.5-0.5,0.7-0.8c0.2-0.3,0.4-0.5,0.5-0.7c0.2-0.3,0.4-0.7,0.7-1.2c0.3-0.5,0.4-1.1,0.4-1.7c0-0.3-0.1-0.6-0.3-0.8
			C252.3,87,252,86.9,251.6,86.9z M262.1,81.9c0-0.2,0.1-0.4,0.3-0.5c0.1-0.1,0.3-0.1,0.4-0.1c0.1,0,0.3,0.1,0.4,0.2
			c0.1,0.1,0.2,0.3,0.2,0.5c-0.1,1.1-0.3,2.2-0.6,3.3c-0.2,1.2-0.5,2.2-0.7,3.1c-0.2,0.8-0.4,1.8-0.7,2.8c-0.2,1.1-0.5,2.2-0.6,3.5
			c0,0.2-0.1,0.3-0.2,0.4c-0.1,0.1-0.2,0.1-0.3,0.1c-0.1,0-0.2-0.1-0.3-0.2c-0.1-0.1-0.1-0.2-0.1-0.4c0.1-1.3,0.3-2.5,0.4-3.5
			s0.4-2.1,0.6-3.1c0.2-0.8,0.4-1.7,0.6-2.7C261.7,84.4,261.9,83.3,262.1,81.9z"/>
		<path class="st3" d="M273.1,89.6c-0.4,0-0.8,0-1.1,0.1c-0.4,0-0.7,0-1.1,0.1c-0.8,1.3-1.5,2.6-2.1,4c-0.6,1.4-0.9,2.7-1.1,3.8
			c-0.1,0.4,0,0.7,0.1,0.8c0.1,0.1,0.4,0.1,0.9,0c0.5-0.1,0.9-0.2,1.5-0.4c0.5-0.2,1.1-0.3,1.6-0.5c0.5-0.2,1.1-0.3,1.6-0.4
			c0.5-0.1,1-0.2,1.5-0.2c0.3,0,0.4,0.1,0.5,0.3c0,0.2-0.1,0.4-0.3,0.4c-0.5,0.1-1,0.3-1.5,0.5c-0.6,0.2-1.1,0.4-1.7,0.6
			c-0.6,0.2-1.2,0.4-1.7,0.6c-0.6,0.2-1,0.3-1.5,0.5c-0.3,0.1-0.6,0.1-0.9,0.1c-0.3,0-0.6-0.1-0.8-0.2s-0.4-0.3-0.5-0.6
			s-0.2-0.6-0.1-1c0.1-0.7,0.2-1.4,0.4-2.1c0.2-0.7,0.5-1.5,0.8-2.2c0.3-0.7,0.6-1.4,1-2.1c0.3-0.7,0.7-1.3,1-1.8
			c-0.6,0.1-1.2,0.2-1.7,0.3s-1.1,0.3-1.6,0.4c-0.2,0-0.3,0.1-0.4,0c-0.1,0-0.2-0.1-0.3-0.2c0-0.1-0.1-0.2-0.1-0.3
			c0-0.1,0.1-0.2,0.2-0.3c0.3-0.2,0.8-0.4,1.4-0.6c0.6-0.2,1.2-0.3,1.9-0.5c0.7-0.1,1.4-0.2,2.1-0.3s1.4-0.1,2-0.1
			c0.2,0,0.3,0,0.4,0.1c0.1,0.1,0.1,0.2,0.1,0.3c0,0.2,0,0.4,0,0.5C273.4,89.6,273.3,89.6,273.1,89.6z M276.3,105.8
			c0-1.9,0.1-3.7,0.4-5.6c0.3-1.9,0.6-3.8,1-5.7c0.3-1.4,0.6-2.8,0.9-4.2c0.3-1.4,0.6-2.9,0.9-4.5c0-0.2,0.1-0.4,0.1-0.8
			c0-0.3,0-0.6,0.1-0.8c0-0.2,0.1-0.4,0.2-0.6c0.1-0.2,0.3-0.3,0.6-0.2c0.3,0,0.4,0.2,0.5,0.3s0.1,0.4,0.1,0.6c0,0.4,0,0.8-0.1,1.3
			c-0.2,1.3-0.5,2.7-0.8,4.1c-0.3,1.4-0.6,2.8-0.9,4.2c0.6-0.3,1.3-0.6,2.1-0.8c0.8-0.2,1.6-0.4,2.4-0.4c0.4,0,0.6,0.1,0.6,0.4
			c0,0.2-0.2,0.4-0.4,0.4c-1.1,0.2-2.1,0.5-2.9,0.8c-0.8,0.3-1.5,0.7-2.2,1.1c-0.2,0.8-0.4,1.7-0.5,2.6s-0.3,1.8-0.5,2.7
			c-0.1,0.9-0.3,1.8-0.3,2.6c-0.1,0.8-0.1,1.6-0.1,2.3c0,0.2-0.1,0.4-0.2,0.6c-0.1,0.2-0.3,0.2-0.5,0.2
			C276.4,106.6,276.3,106.3,276.3,105.8z"/>
		<path class="st3" d="M287.5,87.3c0.9-0.5,1.7-0.8,2.4-1c0.7-0.2,1.3-0.3,1.8-0.4c0.8-0.1,1.3,0.1,1.6,0.5c0.3,0.5,0.4,1.1,0.2,1.8
			c-0.1,0.6-0.4,1.4-0.8,2.2c-0.4,0.9-0.7,1.7-1,2.4c-0.4,0.8-0.8,1.6-1.1,2.4c-0.4,0.8-0.6,1.5-0.7,2.1c0,0.4,0.1,0.6,0.6,0.5
			c0.6-0.1,1.4-0.4,2.5-0.9c0.2-0.1,0.3-0.1,0.5,0.1c0.1,0.2,0.1,0.4-0.1,0.5c-0.2,0.2-0.4,0.3-0.7,0.5c-0.3,0.2-0.6,0.3-0.9,0.4
			c-0.3,0.1-0.6,0.2-0.9,0.3c-0.3,0.1-0.5,0.1-0.7,0.2c-0.5,0-0.8,0-1-0.3c-0.2-0.2-0.4-0.5-0.4-1c0-0.7,0.2-1.5,0.5-2.4
			c0.4-0.9,0.8-1.8,1.2-2.8c0.3-0.7,0.7-1.4,1-2.2c0.3-0.8,0.6-1.5,0.8-2.2c0.1-0.5,0.1-0.9,0-1.1c-0.1-0.2-0.3-0.2-0.6-0.2
			c-1.3,0.2-2.7,0.7-4.2,1.5l-0.1,0.8c-0.1,0.8-0.2,1.7-0.3,2.6c-0.1,0.9-0.2,1.7-0.3,2.5c-0.1,0.8-0.2,1.6-0.3,2.3
			s-0.1,1.3-0.1,1.8c0,0.2-0.1,0.3-0.2,0.4s-0.2,0.2-0.4,0.2c-0.1,0-0.2,0-0.4-0.1c-0.1-0.1-0.2-0.2-0.2-0.4c0-0.8,0-1.8,0.1-3
			s0.2-2.4,0.4-3.6s0.3-2.3,0.5-3.3c0.2-1,0.3-1.7,0.5-2.2c0-0.1,0.1-0.2,0.2-0.3c0.1-0.1,0.3-0.1,0.4-0.1c0.1,0,0.2,0,0.3,0.1
			c0.1,0.1,0.1,0.1,0.1,0.2L287.5,87.3z M300.6,91.2c0.3-1.5,0.6-3,0.8-4.4c0.3-1.4,0.6-2.9,1.1-4.4c0.1-0.3,0.2-0.5,0.3-0.6
			c0.2-0.1,0.3-0.2,0.5-0.2c0.4,0,0.6,0.1,0.6,0.3c0,0.2,0,0.5-0.1,0.8c-0.3,1-0.6,2.3-1,3.8c-0.3,1.5-0.7,3.1-1,4.8
			c-0.2,1.1-0.4,2.1-0.6,2.9c-0.2,0.8-0.3,1.5-0.4,2.1c-0.1,0.6-0.2,1.1-0.3,1.5s-0.1,0.8-0.1,1.1c0,0.4-0.1,0.6-0.3,0.7
			c-0.1,0.1-0.3,0.2-0.4,0.2c-0.1,0-0.2,0-0.3-0.1c0-0.1,0-0.2,0-0.3c0-0.9,0.1-1.9,0.3-3.1c0.1-1.2,0.3-2.4,0.6-3.8
			c-1.1,0.1-2.2,0.3-3.1,0.7s-1.9,0.8-2.9,1.3c-0.2,0.1-0.3,0.1-0.5,0.1c-0.2,0-0.3-0.1-0.4-0.3c0-0.3,0.1-0.5,0.3-0.7
			c0.4-0.2,0.9-0.5,1.5-0.7c0.5-0.2,1.1-0.4,1.7-0.6c0.6-0.2,1.2-0.3,1.8-0.4c0.6-0.1,1.2-0.1,1.8-0.1c0-0.1,0-0.2,0.1-0.4
			C300.6,91.4,300.6,91.3,300.6,91.2z M294,104.9c0-0.6,0.1-1.3,0.4-2.1c0.3-0.8,0.7-1.6,1.3-2.3c0.2-0.3,0.5-0.4,0.8-0.2
			c0.3,0.1,0.3,0.3,0.2,0.6c-0.4,0.7-0.7,1.4-0.9,2c-0.2,0.6-0.4,1.1-0.4,1.6c0,0.3,0,0.4,0.2,0.5c0.2,0.1,0.5,0.1,1,0.1
			c0.7-0.1,1.4-0.2,2.2-0.4c0.8-0.2,1.7-0.5,2.6-0.9c0.3-0.1,0.5-0.1,0.6,0.1c0.1,0.2,0.1,0.4-0.2,0.6c-0.3,0.2-0.7,0.5-1.2,0.7
			c-0.5,0.2-1.1,0.4-1.7,0.6c-0.6,0.2-1.2,0.3-1.8,0.4c-0.6,0.1-1.2,0.2-1.7,0.2c-0.4,0-0.8-0.1-1-0.4
			C294.2,105.6,294,105.3,294,104.9z M300.1,88.6c-0.9,0.1-1.7,0.3-2.4,0.5c-0.7,0.3-1.6,0.7-2.6,1.2c-0.1,0.1-0.3,0.1-0.5,0.1
			s-0.3-0.1-0.4-0.2c0-0.1-0.1-0.2,0-0.4c0-0.1,0.1-0.2,0.2-0.3c0.4-0.2,0.8-0.5,1.3-0.7c0.5-0.2,0.9-0.4,1.4-0.5
			c0.5-0.1,1-0.3,1.5-0.3c0.5-0.1,1-0.1,1.4-0.1c0.2,0,0.3,0,0.4,0.1s0.1,0.2,0.1,0.3c0,0.1-0.1,0.2-0.1,0.3S300.3,88.6,300.1,88.6z
			"/>
		<path class="st3" d="M306.1,106.6c0.4-0.4,0.9-0.9,1.3-1.5c0.5-0.6,0.7-1.2,0.8-1.9c-0.4,0-0.7-0.1-0.9-0.4
			c-0.2-0.3-0.2-0.7,0-1.1c0.1-0.2,0.3-0.4,0.5-0.6c0.2-0.2,0.5-0.2,0.9-0.2c0.3,0,0.5,0.1,0.6,0.3s0.2,0.3,0.2,0.5
			c0,0.2,0,0.5,0,0.7c0,0.3-0.1,0.5-0.2,0.8c-0.2,0.8-0.6,1.5-1.1,2.3s-1.1,1.3-1.7,1.8c-0.1,0.1-0.2,0-0.4-0.1
			C306,106.9,306,106.7,306.1,106.6z"/>
		<path class="st3" d="M69.4,137.1c-1.2,0.2-2.3,0.3-3.4,0.5c-1,0.2-2,0.4-3,0.6c-0.5,0.8-0.9,1.8-1.3,2.9c-0.4,1.1-0.6,2.3-0.6,3.6
			c0.3-0.1,0.5-0.1,0.7-0.1c0.2,0,0.4,0,0.7-0.1c1.2-0.1,2,0.1,2.5,0.6c0.4,0.5,0.7,1.1,0.6,1.8c0,0.7-0.2,1.5-0.4,2.3
			c-0.2,0.8-0.5,1.5-0.7,2.3c-0.3,0.8-0.6,1.6-0.9,2.4c-0.3,0.8-0.5,1.6-0.6,2.5c0,0.3-0.1,0.4-0.2,0.5c-0.1,0.1-0.3,0.1-0.4,0.1
			c-0.1,0-0.2-0.1-0.4-0.2c-0.1-0.1-0.2-0.3-0.2-0.5c0-0.7,0.1-1.4,0.3-2.1c0.2-0.7,0.4-1.4,0.6-2.2c0.2-0.7,0.5-1.5,0.7-2.3
			c0.2-0.8,0.4-1.6,0.4-2.4c0-0.4-0.1-0.8-0.3-1c-0.3-0.3-0.7-0.4-1.3-0.3c-1.1,0.1-2.1,0.4-3,0.8c-0.9,0.4-1.6,0.8-2.2,1.3
			c-0.3,0.2-0.5,0.4-0.7,0.5c-0.2,0.1-0.5,0.1-0.8,0c-0.2-0.1-0.3-0.3-0.3-0.6c0-0.3,0.1-0.5,0.3-0.7c0.5-0.5,1.2-1,1.9-1.3
			c0.7-0.4,1.5-0.6,2.3-0.9c0-1.4,0.2-2.6,0.4-3.6c0.2-1,0.6-1.9,0.9-2.7c-1.4,0.4-2.9,0.8-4.3,1.1c-1.4,0.4-3,0.7-4.7,0.9
			c-0.6,0.1-0.9-0.1-0.9-0.7c0-0.2,0.1-0.4,0.2-0.6s0.4-0.3,0.7-0.3c1.4-0.2,2.8-0.4,4.2-0.7c1.4-0.3,2.8-0.6,4.2-1
			c1.4-0.3,2.8-0.6,4.3-0.9c1.5-0.3,3-0.5,4.6-0.6c0.2,0,0.3,0,0.4,0.1c0.1,0.1,0.1,0.2,0.1,0.3s0,0.2-0.1,0.4
			C69.7,137,69.6,137.1,69.4,137.1z M64.8,124.3c0-0.8-0.3-1.2-0.9-1.4c-0.6-0.1-1.3-0.1-2.1,0.3c-0.2,0.1-0.5,0.2-0.8,0.4
			c-0.3,0.2-0.6,0.4-1,0.7c-0.3,0.3-0.7,0.6-1,1c-0.3,0.4-0.5,0.8-0.6,1.2c-0.1,0.4-0.3,0.6-0.6,0.5c-0.2,0-0.5-0.1-0.7-0.3
			c-0.3-0.2-0.3-0.5-0.3-0.8c0.1-0.4,0.2-0.7,0.4-0.9c0.4-0.6,0.9-1.1,1.5-1.7c0.7-0.6,1.4-1,2.3-1.3c0.7-0.3,1.4-0.4,2.1-0.5
			c0.7,0,1.3,0,1.8,0.2c0.5,0.2,0.9,0.5,1.2,0.9c0.3,0.4,0.4,1,0.4,1.6c0,0.7-0.1,1.4-0.2,2c-0.1,0.6-0.2,1.1-0.4,1.6
			c-0.2,0.5-0.4,0.9-0.6,1.4c-0.2,0.4-0.4,0.9-0.7,1.4c-0.3,0.5-0.5,1.2-0.8,2s-0.5,1.6-0.7,2.4c-0.1,0.3-0.3,0.4-0.6,0.5
			c-0.3,0-0.5-0.2-0.5-0.6c0-0.8,0.1-1.7,0.4-2.5c0.3-0.9,0.6-1.6,0.9-2.4c0.2-0.4,0.4-0.8,0.6-1.2c0.2-0.4,0.3-0.8,0.5-1.2
			c0.1-0.4,0.3-0.9,0.4-1.4C64.8,125.6,64.8,125,64.8,124.3z"/>
		<path class="st3" d="M81.9,131.6c0.4-0.7,0.6-1.3,0.4-1.8c-0.2-0.5-0.5-0.7-1-0.6c-0.8,0.1-1.6,0.3-2.4,0.7
			c-0.8,0.4-1.4,0.9-1.7,1.3c-0.1,0.1-0.2,0.2-0.4,0.1c-0.2,0-0.3-0.1-0.5-0.2c-0.1-0.1-0.3-0.2-0.3-0.4c-0.1-0.2-0.1-0.3,0-0.5
			c0.1-0.2,0.3-0.4,0.6-0.7s0.7-0.6,1.2-0.8c0.5-0.3,1.1-0.5,1.7-0.7c0.6-0.2,1.3-0.3,2-0.3c0.9,0,1.6,0.2,2.1,0.6
			c0.5,0.4,0.7,0.9,0.7,1.4c0,0.3-0.1,0.7-0.2,1.1c-0.1,0.4-0.3,0.9-0.6,1.3c-0.5,0.9-1,1.8-1.7,2.7s-1.3,1.9-2,2.9
			c1.3,1,2.5,2,3.5,3c1,0.9,1.8,1.9,2.5,3c0.1,0.1,0.1,0.3,0.1,0.4c0,0.2-0.1,0.3-0.2,0.4s-0.2,0.2-0.4,0.2c-0.1,0-0.3-0.1-0.4-0.2
			c-0.8-0.9-1.8-1.8-2.8-2.7c-1-0.9-2.2-1.7-3.5-2.5c-0.9,1.3-1.8,2.7-2.8,4.2s-1.8,3-2.6,4.7c-0.4,0.7-0.7,1-1.1,1
			c-0.4,0-0.5-0.5-0.1-1.4c0.6-1.5,1.3-3,2-4.3c0.8-1.3,1.6-2.7,2.4-3.9c0.8-1.3,1.7-2.6,2.6-3.8C80.1,134.4,81,133,81.9,131.6z
			 M92.2,145.9c0,0.2-0.1,0.3-0.2,0.4c-0.1,0.1-0.3,0.2-0.4,0.2c-0.1,0-0.3,0-0.4-0.1c-0.1-0.1-0.2-0.3-0.2-0.5
			c-0.1-1.4-0.1-3,0.1-4.5s0.4-3.1,0.6-4.7l0.3-2c-1.1,0.1-2.1,0.3-3.1,0.6c-1,0.3-2.1,0.8-3.1,1.4c-0.2,0.1-0.3,0.1-0.4,0
			c-0.1,0-0.2-0.1-0.3-0.3c-0.1-0.1-0.1-0.3-0.1-0.5c0-0.2,0.1-0.4,0.3-0.6c0.7-0.6,1.6-1.1,2.9-1.5c1.2-0.4,2.6-0.7,4.1-0.7
			c0.1-0.7,0.2-1.5,0.2-2.2c0.1-0.7,0.1-1.4,0.1-2.1c0-0.4,0.2-0.6,0.5-0.6c0.4-0.1,0.7,0,0.9,0c0.4,0.1,0.5,0.6,0.5,1.4
			c-0.1,1-0.2,2-0.4,3.1c-0.2,1.1-0.4,2.3-0.7,3.6c-0.1,0.7-0.3,1.4-0.4,2.1c-0.1,0.7-0.3,1.3-0.4,2.1s-0.2,1.5-0.3,2.4
			C92.3,143.8,92.2,144.8,92.2,145.9z M97.2,154.6c0,0.2-0.1,0.3-0.2,0.4c-0.1,0.1-0.3,0.2-0.4,0.2c-0.2,0-0.3,0-0.4-0.1
			c-0.1-0.1-0.2-0.2-0.2-0.5c-0.1-3.3,0.1-6.7,0.6-10.4c0.4-3.6,0.9-7.2,1.4-10.7c0.3-2.1,0.6-4.1,0.8-6c0.3-2,0.5-3.8,0.6-5.6
			c0-0.4,0.2-0.6,0.5-0.6c0.3,0,0.6,0,0.9,0c0.4,0.1,0.5,0.6,0.5,1.4c-0.1,1.7-0.3,3.5-0.6,5.4c-0.3,1.9-0.6,3.9-1,6
			c-0.5,3.1-1,6.3-1.4,9.7C97.8,147.2,97.5,150.8,97.2,154.6z"/>
		<path class="st3" d="M113.2,136.7c0.4,0,0.7,0.1,0.7,0.4c0.1,0.3-0.2,0.5-0.7,0.6c-0.5,0.1-1.2,0.3-1.8,0.6
			c-0.7,0.2-1.3,0.5-2,0.8c-0.7,0.3-1.3,0.6-1.9,0.9c-0.6,0.3-1.2,0.6-1.7,0.9c-0.2,0.1-0.4,0.2-0.6,0.1c-0.2,0-0.4-0.2-0.5-0.3
			c-0.1-0.2-0.2-0.3-0.1-0.5c0-0.2,0.2-0.4,0.4-0.5c1-0.6,2.3-1.2,3.7-1.8C110.2,137.2,111.7,136.8,113.2,136.7z M117.1,131
			c0.1-0.7,0-1.3-0.2-1.6c-0.2-0.3-0.7-0.4-1.6-0.2c-1.1,0.3-2.1,0.7-3.2,1.2c-1.1,0.6-2,1.1-2.6,1.6c-0.4,0.3-0.6,0.4-0.9,0.5
			c-0.2,0-0.5,0-0.8-0.1c-0.3-0.1-0.4-0.3-0.3-0.5c0-0.2,0.2-0.4,0.4-0.7c0.4-0.3,0.8-0.7,1.4-1c0.6-0.4,1.2-0.7,1.8-1
			c0.7-0.3,1.3-0.6,2-0.9c0.7-0.3,1.4-0.4,2-0.5c1.4-0.3,2.5-0.1,3.1,0.4c0.7,0.5,0.9,1.5,0.6,3.1c-0.4,2.4-0.8,5-1.5,7.6
			c-0.6,2.7-1.6,5.2-3,7.6c-0.1,0.2-0.2,0.3-0.4,0.3c-0.1,0-0.3,0-0.4,0c-0.1,0-0.2-0.1-0.3-0.3c-0.1-0.1-0.1-0.3,0-0.5
			c1-2.4,1.8-4.8,2.4-7.2C116.4,136.4,116.8,133.8,117.1,131z M127.9,154.5c0,0.2-0.1,0.3-0.2,0.4c-0.1,0.1-0.2,0.2-0.4,0.2
			c-0.1,0-0.3,0-0.4-0.1c-0.1-0.1-0.2-0.2-0.2-0.5c-0.3-2.5-0.2-5.4,0.1-8.6s0.6-6.7,1-10.3c-1.4,0.3-2.7,0.6-3.8,1.1
			c-1.1,0.5-2.1,1-3,1.4c-0.2,0.1-0.4,0.2-0.6,0.1c-0.2-0.1-0.4-0.2-0.5-0.3c-0.1-0.1-0.1-0.3-0.1-0.5c0-0.2,0.2-0.4,0.4-0.5
			c1-0.5,2.2-1,3.5-1.5c1.3-0.5,2.7-0.8,4.2-0.9c0.2-1.9,0.4-3.8,0.5-5.8c0.2-1.9,0.3-3.9,0.3-5.9c0-0.4,0.1-0.6,0.4-0.7
			c0.3-0.1,0.5-0.1,0.8,0c0.3,0.1,0.5,0.3,0.6,0.5c0.1,0.3,0.1,0.6,0.1,1c-0.2,2.4-0.4,4.9-0.7,7.5c-0.3,2.6-0.6,5.3-0.9,8
			c-0.3,2.7-0.6,5.4-0.8,8C128,149.7,127.9,152.2,127.9,154.5z"/>
		<path class="st3" d="M140.6,140.4c0.5-0.6,0.8-1.1,0.8-1.3c0-0.2-0.3-0.3-0.9-0.3c-0.9,0.1-1.8,0.2-2.6,0.5
			c-0.9,0.3-1.8,0.6-2.8,1c-0.3,0.1-0.4,0.1-0.6,0c-0.1-0.1-0.2-0.2-0.2-0.4c0-0.2,0-0.3,0.1-0.5c0.1-0.2,0.2-0.3,0.4-0.4
			c0.5-0.3,1.2-0.7,2-1.3c0.8-0.6,1.6-1.3,2.5-2c0.8-0.7,1.6-1.4,2.3-2.1c0.7-0.7,1.2-1.2,1.5-1.6c0.4-0.5,0.4-0.9,0.1-1.3
			c-0.3-0.4-0.8-0.6-1.7-0.6c-0.7,0-1.2,0.1-1.7,0.3c-0.5,0.2-0.8,0.4-1.2,0.6s-0.6,0.5-0.7,0.7c-0.2,0.3-0.4,0.5-0.5,0.7
			c-0.1,0.1-0.2,0.2-0.4,0.2c-0.2,0-0.4,0-0.6-0.1c-0.2-0.1-0.3-0.2-0.4-0.3c-0.1-0.1-0.1-0.3,0-0.5c0.1-0.4,0.4-0.8,0.7-1.1
			c0.3-0.4,0.7-0.7,1.2-1c0.5-0.3,1-0.5,1.6-0.7s1.2-0.2,1.9-0.2c1.8,0.1,2.9,0.4,3.5,1.2c0.6,0.7,0.5,1.6-0.1,2.6
			c-0.3,0.5-0.7,1-1.2,1.6c-0.5,0.5-1,1-1.6,1.5c-0.5,0.5-1.1,0.9-1.6,1.3c-0.5,0.4-1,0.8-1.3,1c0.7-0.2,1.4-0.3,2-0.3
			c0.7-0.1,1.3,0,1.7,0.1c0.6,0.1,0.9,0.5,0.9,1c0,0.6-0.4,1.4-1.1,2.2c-0.8,0.9-1.6,1.9-2.5,2.8c-0.9,0.9-1.7,2-2.5,3.1
			c-0.3,0.4-0.4,0.7-0.4,0.9c0,0.3,0.3,0.3,0.9,0.2c0.5-0.1,1.1-0.2,1.9-0.3c0.7-0.1,1.5-0.3,2.3-0.4s1.6-0.2,2.5-0.3
			c0.8-0.1,1.6-0.1,2.3-0.1c0.4,0,0.7,0.2,0.7,0.5c0,0.3-0.1,0.5-0.5,0.6c-1.5,0.3-3.2,0.5-4.8,0.8c-1.7,0.3-3.3,0.7-4.8,1.1
			c-0.4,0.1-0.9,0.2-1.4,0.2c-0.5,0-0.8-0.2-1-0.5c-0.2-0.3-0.3-0.6-0.2-1.1c0.1-0.4,0.2-0.8,0.4-1.2c0.3-0.5,0.7-1,1.1-1.6
			c0.4-0.6,0.9-1.1,1.4-1.7c0.5-0.6,1-1.2,1.6-1.8C139.7,141.5,140.2,140.9,140.6,140.4z M151.7,154.6c0-1.5,0-3.1,0.1-4.8
			c0.1-1.6,0.2-3.3,0.3-4.9c0.1-1.6,0.3-3.3,0.5-4.8s0.3-3.1,0.5-4.5c0.1-1.2,0.2-2.4,0.4-3.3c0.1-1,0.2-1.9,0.3-2.8
			c0.1-0.9,0.2-1.8,0.2-2.8c0-0.9,0.1-2,0.1-3.2c0-0.4,0-0.8,0.1-1.1c0.1-0.3,0.4-0.4,1-0.5c0.4,0,0.7,0.1,0.8,0.4
			c0.1,0.3,0.2,0.7,0.2,1.1c0,0.5,0,1.2-0.1,2.1c-0.1,0.8-0.1,1.8-0.2,2.8c-0.1,1-0.2,2.2-0.4,3.4s-0.3,2.4-0.4,3.7
			c-0.4,3.3-0.7,6.6-1.1,9.9c-0.4,3.3-0.7,6.5-0.8,9.6c0,0.3-0.1,0.4-0.2,0.6c-0.1,0.1-0.3,0.2-0.5,0.2c-0.2,0-0.3-0.1-0.5-0.2
			C151.8,155.1,151.7,154.9,151.7,154.6z"/>
		<path class="st3" d="M161.5,146c-0.8-0.1-1.3-0.5-1.6-1.1c-0.2-0.6-0.3-1.3-0.3-2c0.1-0.7,0.2-1.5,0.5-2.2
			c0.2-0.7,0.4-1.3,0.6-1.8c0.4-1.2,1-2.5,1.5-3.8c0.6-1.3,1.3-2.6,2.1-3.8c0.1-0.2,0.3-0.3,0.5-0.3c0.2,0,0.3,0,0.5,0.1
			s0.3,0.2,0.4,0.4c0.1,0.2,0.1,0.3,0.1,0.5c0.8,0.2,1.4,0.4,1.9,0.7c0.5,0.3,0.9,0.7,1.2,1.1s0.5,0.9,0.6,1.4
			c0.1,0.5,0.2,1,0.1,1.5l-0.1,0.9c0.7-0.4,1.5-0.7,2.4-1.1c0.9-0.3,1.8-0.6,2.8-0.9c1-0.3,1.9-0.5,2.9-0.7c0.9-0.2,1.8-0.4,2.6-0.5
			c0.3-1.7,0.5-3.4,0.8-5.1c0.3-1.6,0.6-3.2,0.9-4.8c0.1-0.4,0.2-0.6,0.4-0.7c0.2-0.1,0.4-0.2,0.6-0.1c0.4,0,0.7,0.1,0.8,0.3
			c0.2,0.1,0.2,0.4,0.1,0.8c-0.9,4.3-1.7,8.8-2.3,13.5c-0.6,4.7-1.1,9.6-1.5,14.5c0,0.4-0.1,0.6-0.3,0.8s-0.3,0.3-0.5,0.3
			c-0.2,0-0.3,0-0.5-0.2c-0.1-0.1-0.2-0.4-0.2-0.7c0.1-2.5,0.2-5.3,0.4-8.2c0.2-3,0.5-5.9,0.9-9c-0.9,0.2-1.8,0.4-2.8,0.6
			c-1,0.2-2,0.5-2.9,0.8c-1,0.3-1.9,0.7-2.7,1.1c-0.9,0.4-1.6,0.8-2.2,1.3c-0.1,0.1-0.2,0.1-0.3,0.2c-0.1,0.1-0.3,0.1-0.4,0.2
			c-0.2,0.4-0.3,0.7-0.6,1c-0.2,0.3-0.4,0.6-0.6,0.9c-0.4,0.5-0.8,1-1.3,1.5c-0.5,0.5-1,1-1.6,1.3c-0.6,0.4-1.1,0.7-1.7,0.9
			C162.5,146,162,146.1,161.5,146z M165.2,133.3c-0.4,0.7-0.9,1.6-1.4,2.6c-0.5,1-1,2.2-1.4,3.5c-0.4,1.2-0.6,2.2-0.7,3.1
			c-0.1,0.9,0,1.4,0.4,1.4c0.6,0.1,1.2-0.2,2-0.7s1.5-1.3,2.3-2.4c0.5-0.8,0.9-1.5,1.2-2.2c0.3-0.7,0.4-1.4,0.4-2.1
			c0-0.7-0.2-1.4-0.6-2C166.9,134,166.2,133.6,165.2,133.3z"/>
		<path class="st3" d="M194.9,127.2c0.2-0.3,0.5-0.4,0.7-0.3c0.3,0,0.5,0.1,0.6,0.3c0.4,0.3,0.5,0.7,0.2,1.1
			c-1.2,1.5-2.3,3.5-3.6,5.8c0.4,0.7,0.8,1.5,1.1,2.3c0.4,0.8,0.7,1.7,0.9,2.6c0.3,0.9,0.5,1.7,0.7,2.5c0.2,0.8,0.3,1.6,0.4,2.3
			c0,0.3-0.1,0.5-0.4,0.6c-0.3,0.1-0.5,0-0.6-0.4c-0.2-0.5-0.4-1.1-0.6-1.8c-0.2-0.7-0.5-1.4-0.7-2.1c-0.3-0.7-0.6-1.4-0.8-2.1
			c-0.3-0.7-0.6-1.3-0.9-1.9c-1,2-1.9,4-2.7,6c-0.8,2.1-1.5,4-1.9,5.7c-0.1,0.4-0.4,0.7-0.7,0.7c-0.4,0-0.5-0.3-0.5-1
			c0.1-0.6,0.2-1.4,0.6-2.4c0.3-1,0.7-2.2,1.2-3.5c0.5-1.3,1-2.6,1.6-4c0.6-1.4,1.2-2.7,1.8-4c0.6-1.3,1.3-2.5,1.9-3.6
			C193.7,128.8,194.3,127.9,194.9,127.2z M206.5,126c-0.1,1.2-0.3,2.6-0.5,4c-0.2,1.5-0.4,3-0.7,4.6c-0.2,1.6-0.4,3.2-0.6,4.8
			c-0.2,1.6-0.3,3.1-0.4,4.6c0,0.3-0.1,0.6-0.2,0.7c-0.1,0.1-0.3,0.2-0.4,0.2c-0.1,0-0.3-0.1-0.4-0.2c-0.1-0.1-0.2-0.3-0.2-0.6
			c-0.1-1.4,0-2.8,0.1-4.4s0.3-3.1,0.5-4.8c-1.2,0.3-2.4,0.8-3.6,1.3s-2.1,1-2.8,1.4c-0.3,0.2-0.6,0.3-0.8,0.3
			c-0.2,0-0.4-0.1-0.5-0.2c-0.1-0.1-0.1-0.3-0.1-0.6c0.1-0.2,0.3-0.4,0.6-0.7c0.8-0.6,1.8-1.1,3.1-1.7c1.3-0.5,2.7-1,4.2-1.2
			c0.2-1.2,0.3-2.4,0.4-3.7s0.2-2.5,0.3-3.7c0-0.2,0.2-0.4,0.4-0.6c0.2-0.1,0.4-0.2,0.6-0.2c0.2,0,0.4,0.1,0.6,0.2
			C206.5,125.6,206.6,125.8,206.5,126z M199.1,152.8c0.1-0.9,0.3-1.8,0.7-2.9c0.4-1.1,0.9-2,1.5-2.8c0.1-0.2,0.3-0.3,0.5-0.4
			c0.2-0.1,0.4-0.1,0.5,0s0.2,0.2,0.3,0.4c0,0.2,0,0.5-0.2,0.8c-0.4,0.7-0.7,1.5-1,2.3c-0.3,0.8-0.4,1.6-0.5,2.5
			c0,0.5,0.1,1,0.4,1.2s0.8,0.3,1.5,0c0.5-0.2,1-0.3,1.6-0.6c0.5-0.2,1.1-0.4,1.7-0.6c0.6-0.2,1.2-0.4,2-0.5
			c0.7-0.1,1.5-0.2,2.4-0.3c0.4,0,0.6,0.2,0.6,0.5c0,0.1-0.1,0.2-0.2,0.4c-0.1,0.1-0.2,0.2-0.4,0.2c-0.8,0.1-1.5,0.3-2.1,0.4
			c-0.6,0.2-1.2,0.3-1.7,0.5c-0.5,0.2-1,0.4-1.5,0.6s-1,0.4-1.6,0.6c-0.5,0.2-1.1,0.4-1.7,0.5c-0.6,0.1-1.1,0.1-1.5-0.1
			c-0.4-0.1-0.8-0.4-1.1-0.9C199.1,154.3,199,153.6,199.1,152.8z M208.5,144.8c-0.1-1.4-0.2-3-0.1-4.8c0.1-1.8,0.2-3.8,0.4-5.8
			c0.2-2,0.4-4.2,0.7-6.3c0.3-2.2,0.5-4.3,0.8-6.4c0.1-0.3,0.2-0.5,0.4-0.7s0.3-0.2,0.5-0.2c0.3,0,0.6,0,0.8,0.2
			c0.2,0.2,0.3,0.5,0.2,0.8c-0.7,4.3-1.3,8.4-1.7,12.4c-0.4,4-0.7,7.6-0.8,10.8c0,0.4-0.2,0.6-0.6,0.7S208.5,145.3,208.5,144.8z"/>
		<path class="st3" d="M226.8,133.3c-1.8,0.1-3.4,0.3-5,0.6c-0.8,1.2-1.5,2.4-2,3.4c-0.5,1.1-0.9,2.3-1.2,3.6
			c-0.1,0.4-0.1,0.7,0,0.9s0.2,0.4,0.4,0.5c0.2,0.1,0.4,0.2,0.6,0.2c0.2,0,0.4,0,0.6,0c0.5,0,1-0.1,1.6-0.2c0.6-0.1,1.2-0.3,1.8-0.5
			c0.6-0.2,1.2-0.4,1.8-0.6s1.1-0.4,1.5-0.6c0.4-0.2,0.7-0.1,0.8,0.1c0.1,0.3,0.1,0.5-0.2,0.7c-0.4,0.3-0.9,0.6-1.7,1
			c-0.7,0.3-1.5,0.6-2.2,0.8c-0.8,0.2-1.5,0.4-2.1,0.6c-0.7,0.1-1.2,0.2-1.5,0.2c-0.5,0-1,0-1.4-0.1c-0.4-0.1-0.8-0.2-1.1-0.5
			c-0.3-0.2-0.5-0.5-0.6-0.9c-0.1-0.4-0.1-0.9,0-1.6c0.2-1.3,0.6-2.6,1.2-3.7s1.3-2.1,1.9-3l-3,0.7c-0.6,0.2-1,0.1-1.1-0.3
			c-0.1-0.4,0.2-0.7,0.8-0.9c0.8-0.3,1.6-0.5,2.5-0.7c0.9-0.2,1.8-0.5,2.7-0.7c0.9-0.2,1.8-0.3,2.7-0.5c0.9-0.1,1.7-0.2,2.5-0.2
			c0.4,0,0.8,0.1,0.9,0.2s0.2,0.3,0.2,0.5c0,0.2-0.2,0.4-0.4,0.5S227.1,133.3,226.8,133.3z M226.8,128c-1,0.1-1.8,0.3-2.5,0.4
			s-1.4,0.3-2.1,0.5c-0.7,0.2-1.3,0.4-1.9,0.6s-1.3,0.4-2.1,0.6c-0.6,0.2-1,0.1-1.1-0.2c-0.1-0.2,0-0.4,0.1-0.6
			c0.2-0.2,0.4-0.3,0.6-0.5c1.3-0.6,2.8-1.1,4.5-1.5s3.3-0.7,4.9-0.9c0.4,0,0.7,0.2,0.7,0.5c0,0.3-0.1,0.5-0.3,0.6
			S227.1,127.9,226.8,128z M237.3,123.2c0-0.4,0.2-0.6,0.4-0.7c0.1,0,0.2,0,0.3,0c0.8,0,1.2,0.4,1.1,1.2c-0.5,4-1,8.5-1.5,13.5
			c-0.5,5-0.9,10.2-1.3,15.8c0,0.3-0.1,0.5-0.2,0.7s-0.3,0.2-0.4,0.2c-0.2,0-0.3-0.1-0.4-0.2s-0.2-0.3-0.2-0.5
			c0-1.2,0.1-2.6,0.1-4.1s0.1-3,0.2-4.7c0.1-1.6,0.2-3.3,0.3-5c0.1-1.7,0.3-3.4,0.4-5c-0.7,0.1-1.4,0.2-2.1,0.3s-1.3,0.3-1.9,0.5
			c-0.6,0.2-1.3,0.4-2,0.7c-0.7,0.3-1.4,0.6-2.2,1c-0.2,0.1-0.5,0.2-0.8,0.3c-0.3,0.1-0.6,0-0.9-0.2c-0.2-0.2-0.3-0.4-0.2-0.6
			c0.1-0.3,0.2-0.4,0.4-0.5c1.8-0.9,3.4-1.5,4.9-1.8c1.5-0.4,3.1-0.6,4.8-0.8c0.2-1.9,0.3-3.7,0.5-5.4
			C236.9,126,237.1,124.5,237.3,123.2z"/>
		<path class="st3" d="M243.5,145.3c-0.5-0.3-0.9-0.7-1.1-1.3c-0.2-0.6-0.3-1.2-0.2-1.9c0-0.7,0.1-1.4,0.3-2.1
			c0.2-0.7,0.4-1.3,0.6-1.8c0.4-1.2,1-2.5,1.6-3.7c0.6-1.3,1.4-2.4,2.2-3.4c-0.1-0.3,0-0.4,0-0.5c0.1-0.1,0.2-0.2,0.4-0.2
			c0.2-0.1,0.4-0.1,0.6-0.1c1.3,0.2,2.2,0.6,2.8,1.2c0.5,0.7,0.8,1.6,0.8,2.7c0,1.1-0.2,2.3-0.5,3.5c0.7-0.4,1.4-0.7,2.2-0.9
			c0.8-0.3,1.5-0.5,2.3-0.6s1.5-0.3,2.3-0.4s1.4-0.1,1.9-0.1c0.2-0.7,0.3-1.4,0.5-2.1c0.1-0.7,0.3-1.4,0.5-2.1
			c0.1-0.4,0.2-0.6,0.4-0.7c0.2-0.1,0.4-0.1,0.6-0.1c0.3,0,0.5,0.1,0.7,0.2c0.2,0.2,0.3,0.4,0.2,0.8c-0.2,1.2-0.5,2.4-0.7,3.5
			s-0.5,2.2-0.7,3.4c-0.2,1.2-0.5,2.4-0.7,3.7c-0.2,1.3-0.4,2.8-0.5,4.5c0,0.2-0.1,0.3-0.2,0.4s-0.3,0.2-0.4,0.2
			c-0.2,0-0.3,0-0.4-0.1s-0.2-0.2-0.2-0.5c-0.1-1.5,0-3.1,0.1-4.8c0.1-1.6,0.4-3.3,0.6-4.9c-1.5,0.2-2.9,0.5-4.3,0.9
			c-1.4,0.5-3,1.1-4.6,1.8c-0.2,0.1-0.3,0.1-0.4,0.1c-0.2,0.3-0.3,0.5-0.5,0.8c-0.1,0.3-0.3,0.5-0.5,0.8c-0.4,0.6-0.8,1.2-1.3,1.8
			c-0.5,0.6-0.9,1.1-1.4,1.5c-0.5,0.4-1,0.7-1.5,0.8C244.5,145.7,244,145.6,243.5,145.3z M248.1,132.1c-0.6,0.7-1.2,1.7-1.7,2.8
			c-0.5,1.1-1.1,2.4-1.5,3.7c-0.2,0.5-0.4,1.1-0.5,1.7c-0.2,0.6-0.3,1.1-0.3,1.5s0,0.9,0,1.2c0.1,0.3,0.2,0.5,0.5,0.6
			c0.3,0.1,0.8-0.2,1.6-0.9c0.7-0.7,1.4-1.6,2-2.6c0.5-0.9,0.9-1.8,1.2-2.8c0.3-1,0.5-2,0.5-3.1c0-0.6-0.1-1.1-0.3-1.6
			C249.2,132.3,248.8,132.1,248.1,132.1z M265.2,154.3c0,0.2-0.1,0.4-0.2,0.5c-0.1,0.1-0.3,0.2-0.5,0.2c-0.2,0-0.3,0-0.5-0.1
			c-0.1-0.1-0.2-0.3-0.2-0.6c0-2.3,0.2-4.8,0.5-7.7c0.3-2.9,0.7-5.8,1.2-8.7c0.4-2.9,0.9-5.8,1.4-8.5c0.5-2.7,1-5.1,1.3-7.1
			c0.1-0.4,0.3-0.6,0.6-0.6c0.4-0.1,0.7-0.1,0.9,0c0.2,0.1,0.3,0.2,0.4,0.5c0,0.3,0,0.6-0.1,0.9c-0.2,1-0.4,2.2-0.6,3.5
			c-0.3,1.4-0.5,2.7-0.8,4.1c-0.4,1.7-0.7,3.5-1.1,5.5c-0.4,2-0.7,4-1,6s-0.6,4.1-0.9,6.2C265.5,150.5,265.3,152.4,265.2,154.3z"/>
		<path class="st3" d="M283,127.3c0.3-0.2,0.6-0.3,0.8-0.3s0.4,0.1,0.6,0.2c0.1,0.1,0.2,0.3,0.3,0.5c0,0.2,0,0.4-0.1,0.5
			c-1,1.5-1.9,2.8-2.5,4c-0.7,1.2-1.3,2.3-1.9,3.3c0.6,0.9,1.3,1.7,2,2.5c0.7,0.8,1.4,1.6,2.2,2.4c0.7,0.7,1.4,1.4,2.1,2
			c0.7,0.6,1.2,1.1,1.7,1.5c0.1,0.1,0.2,0.2,0.2,0.4c0,0.1,0,0.3-0.1,0.4c-0.1,0.1-0.2,0.2-0.3,0.2c-0.1,0-0.3,0-0.5,0
			c-0.4-0.2-0.9-0.5-1.6-1c-0.7-0.5-1.4-1.1-2.1-1.8c-0.8-0.7-1.5-1.4-2.3-2.2c-0.8-0.8-1.5-1.6-2.2-2.4l-0.2,0.4
			c-0.4,0.8-0.7,1.5-1.1,2.2c-0.3,0.7-0.6,1.5-1,2.4s-0.7,1.8-1.1,3c-0.4,1.1-0.9,2.5-1.5,4.1c-0.1,0.2-0.2,0.4-0.4,0.5
			c-0.2,0.1-0.3,0.1-0.5,0.1c-0.2,0-0.3-0.1-0.4-0.3c-0.1-0.2-0.1-0.4,0-0.7c0.7-2.7,1.4-5.1,2.1-7s1.5-3.7,2.2-5.2
			c0.8-1.6,1.5-2.9,2.1-4c0.6-1.1,1.1-2,1.5-2.7c0.4-0.7,0.8-1.3,1.1-1.7C282.4,127.8,282.7,127.5,283,127.3z M296.4,133.9
			c-1,0.2-2,0.4-2.9,0.6c-0.9,0.2-1.8,0.5-2.6,0.8c-0.8,0.3-1.6,0.6-2.2,0.9c-0.7,0.3-1.2,0.7-1.6,1.1c-0.4,0.4-0.9,0.5-1.3,0.2
			c-0.2-0.1-0.2-0.3-0.3-0.6c0-0.3,0-0.5,0.2-0.6c0.4-0.5,1-1,1.8-1.5c0.8-0.4,1.7-0.8,2.7-1.1c1-0.3,2.1-0.6,3.2-0.8
			s2.2-0.4,3.4-0.5c0.2-0.8,0.3-1.5,0.4-2.2c0.1-0.7,0.3-1.4,0.4-2.1s0.2-1.5,0.4-2.2c0.1-0.8,0.2-1.6,0.3-2.5c0-0.2,0-0.3,0.1-0.4
			c0.1-0.1,0.2-0.2,0.2-0.2c0.1,0,0.2,0,0.3,0c0.9,0,1.2,0.4,1.2,1.2c-0.2,2-0.5,3.9-0.9,5.9s-0.9,4-1.3,6.1c-0.5,2.5-1,5.1-1.6,7.7
			s-0.9,5.4-1.1,8.3c0,0.4-0.2,0.7-0.6,0.8c-0.2,0-0.3,0-0.4-0.1s-0.2-0.2-0.2-0.4c0-1.3,0-2.6,0.1-3.9c0.1-1.2,0.2-2.5,0.4-3.8
			c0.2-1.3,0.4-2.7,0.7-4.1c0.3-1.4,0.6-3,1-4.7L296.4,133.9z"/>
	</g>
	<g class="st2">
		<rect x="175" y="48" class="st7" width="14" height="12.4"/>
		<path class="st7" d="M179,49h-4c0-10.3,9.2-13,14-13l0,4C188,40,179,40.3,179,49z"/>
		<rect x="156" y="48" class="st7" width="14" height="12.4"/>
		<path class="st7" d="M160,49h-4c0-10.3,9.2-13,14-13l0,4C169,40,160,40.3,160,49z"/>
	</g>
	<g class="st2">
		
			<rect x="162" y="180" transform="matrix(-1 -1.224647e-16 1.224647e-16 -1 338.0117 372.4445)" class="st7" width="14" height="12.4"/>
		<path class="st7" d="M172,191.4h4c0,10.3-9.2,13-14,13l0-4C163,200.4,172,200.1,172,191.4z"/>
		
			<rect x="181" y="180" transform="matrix(-1 -1.224647e-16 1.224647e-16 -1 376.0117 372.4445)" class="st7" width="14" height="12.4"/>
		<path class="st7" d="M191,191.4h4c0,10.3-9.2,13-14,13l0-4C182,200.4,191,200.1,191,191.4z"/>
	</g>
	<g class="st2">
		
			<image style="overflow:visible;" width="355" height="270" xlink:href="A40343F9.jpg"  transform="matrix(0.9999 0 0 0.9999 -8014 -8057)">
		</image>
	</g>
</g>
</svg>
